<svg id="svg443" width="85.484mm" height="248.22mm" version="1.1" viewBox="0 0 85.484 248.22" xmlns="http://www.w3.org/2000/svg">
<g id="layer1" transform="translate(-68.364 -20.607)">
<path id="path184" d="m96.379 80.43c1.0189-0.16614 2.0927-0.30723 3.1901-0.44049-1.4203 0.06585-2.8421 0.14264-4.2623 0.232-0.13639 0.14419-0.27104 0.28843-0.40613 0.43107 0.48599-0.07212 0.97034-0.14419 1.4782-0.22258" style="fill:#c44949"/>
<path id="path186" d="m90.483 109.7c0.0719-2.4799 0.15997-4.8533 0.24306-7.0887 0.21641-6.1857 0.4844-11.342 0.68974-14.95 0.0689-1.3638 0.15196-2.505 0.21328-3.4001-1.9987 2.2824-3.8751 4.5695-5.6324 6.8488v24.788c1.3528-2.0269 2.864-4.0993 4.4865-6.1983" style="fill:#c44949"/>
<path id="path188" d="m92.146 87.661c0.20529 3.6086 0.47342 8.7644 0.68978 14.95 0.0471 1.2713 0.0955 2.5959 0.1426 3.9503 5.6386-6.8864 12.455-14 19.723-20.844 1.1678-1.0989 2.3138-2.2009 3.444-3.3045-0.49067-0.04087-0.97816-0.08465-1.4751-0.12385-1.541-0.09563-3.1086-0.23826-4.6777-0.29785-1.5676-0.07523-3.1399-0.16148-4.6871-0.18339-1.5472-0.04545-3.0725-0.07523-4.546-0.058-1.4767-0.0049-2.9063 0.0049-4.2576 0.06425-0.97034 0.03466-1.8889 0.0627-2.7762 0.10505-0.61607 0.67406-1.2212 1.3481-1.8152 2.0222 0.0627 0.93586 0.15686 2.1868 0.23507 3.7199" style="fill:#c44949"/>
<path id="path190" d="m124.31 120.93c4.0381-4.278 7.7925-8.512 11.251-12.624l-1.3136-23.544c-0.19106-0.03466-0.42968-0.07683-0.70701-0.127-2.5348 3.408-5.3408 7.0244-8.4054 10.769l-0.82455 25.525" style="fill:#5c78a1"/>
<path id="path192" d="m93.562 135.67c0.0223 4.0601 0.0444 8.1844 0.0644 12.309-9e-3 1.5535-0.0178 3.1038-0.0223 4.6542 0.44992-0.54238 0.91391-1.0863 1.378-1.6303 0.0178-0.64271 0.0311-1.2886 0.0445-1.9172 0.0311-1.8639 0.1098-3.6666 0.1724-5.3753 0.0546-1.7087 0.14087-3.3249 0.22086-4.8156 0.30394-5.9663 0.73362-9.9433 0.73362-9.9433s0.42793 3.977 0.73209 9.9433c0.08 1.4908 0.16619 3.107 0.22085 4.8156 0.0546 1.4892 0.11602 3.0584 0.15374 4.6683 4.6793-5.2859 9.9307-10.635 15.444-15.825 3.1117-2.9283 6.0744-5.8722 8.918-8.8036l-0.74932-23.247c-5.7719 6.7297-12.328 13.748-19.651 20.642-2.759 2.5975-5.3251 5.2295-7.7329 7.874 0.0356 2.1915 0.072 4.4096 0.0751 6.6513" style="fill:#5c78a1"/>
<path id="path194" d="m90.019 132.96c-1.4061 1.6632-2.7433 3.328-4.0224 4.9881v24.785c1.2149-1.8184 2.552-3.6744 3.9864-5.5524-0.0178-3.0537-0.0311-6.1246-0.0471-9.2034 0.0222-4.1243 0.0445-8.2487 0.0644-12.309 1e-3 -0.90764 9e-3 -1.809 0.0178-2.7088" style="fill:#5c78a1"/>
<path id="path196" d="m122.92 164.09-0.59566-18.46c-6.1137 7.2423-13.163 14.869-21.108 22.348-1.3544 1.276-2.6555 2.5614-3.9252 3.8516-4e-3 0.20534-9e-3 0.41698-0.013 0.62077-0.0311 1.8639-0.10792 3.6666-0.1724 5.3753-0.0546 1.7087-0.13957 3.3249-0.22086 4.8172-0.30394 5.9647-0.73519 9.9433-0.73519 9.9433s-0.4328-3.9786-0.73674-9.9433c-0.0814-1.4924-0.16619-3.1085-0.22084-4.8172-0.0445-1.182-0.0893-2.4204-0.12715-3.6823-0.58474 0.62234-1.1584 1.2447-1.7244 1.8686-0.0533 2.5176-0.12093 4.9755-0.18352 7.341-0.0782 3.5443-0.20084 6.8959-0.31816 9.9887-0.0893 2.5803-0.18973 4.9677-0.29016 7.1529 5.7437-6.9836 12.814-14.199 20.151-21.109 4.9818-4.6887 9.6141-9.4166 13.911-14.075l0.57531-25.602c-1.1647 1.4579-2.3749 2.9377-3.6227 4.4363l-0.64272 19.946" style="fill:#c44949"/>
<path id="path198" d="m127.51 139.31 0.54865 24.418c2.6006-2.8608 5.0728-5.6904 7.4085-8.465l0.71795-22.186 0.0311 0.94996v-6.2014c-2.574 3.5741-5.4835 7.4398-8.7064 11.484" style="fill:#c44949"/>
<path id="path200" d="m90.721 193.34c-0.11776-3.0929-0.23818-6.4444-0.31816-9.9887-0.0311-1.2698-0.0689-2.5724-0.10172-3.8892-1.508 1.773-2.9408 3.5475-4.3046 5.3173v24.505c1.5049-2.2808 3.2214-4.6181 5.0994-6.9868-0.12844-2.6414-0.2586-5.6449-0.37459-8.9572" style="fill:#c44949"/>
<path id="path202" d="m101.84 214.21c0.37637-3e-3 0.74617-6e-3 1.1271-9e-3 0.75869-0.028 1.5268-0.0564 2.3012-0.0846 1.5472-0.0378 3.1179-0.14735 4.6871-0.24924 1.5676-0.0815 3.1336-0.25706 4.6714-0.3825 1.5378-0.15051 3.049-0.32452 4.5084-0.4938 1.4578-0.19907 2.8687-0.36055 4.198-0.57216 0.77124-0.11131 1.508-0.22418 2.2229-0.33861l0.54394-24.194c-6.7783 8.371-14.889 17.439-24.26 26.325" style="fill:#5c78a1"/>
<path id="path204" d="m129.09 209.43c1.657-1.8435 3.2575-3.6713 4.8047-5.4803l0.8841-27.315c-1.9171 2.6163-3.9958 5.3643-6.2422 8.2158l0.55336 24.58" style="fill:#5c78a1"/>
<path id="path206" d="m138.82 214.41-2.6006-80.385-0.0311-0.94996-0.71793 22.186-0.69134 21.377-0.88409 27.315-0.2133 6.6168c-0.29328 0.0627-0.63801 0.13794-1.044 0.22574-1.3262 0.2759-3.2387 0.65212-5.5524 1.0393-0.48596 0.0831-1.0001 0.16775-1.5206 0.2508-0.71483 0.11441-1.4516 0.22729-2.2229 0.3386-1.3293 0.21165-2.7402 0.37308-4.198 0.57217-1.4594 0.1693-2.9706 0.34331-4.5084 0.49379-1.5378 0.12539-3.1038 0.30096-4.6714 0.3825-1.5692 0.10189-3.1399 0.21165-4.6871 0.24924-0.77443 0.0284-1.5426 0.0564-2.3012 0.0846-0.38081 3e-3 -0.75088 6e-3 -1.1271 9e-3 -0.37326 3e-3 -0.75244 6e-3 -1.1208 9e-3 -0.73831 5e-3 -1.4657 8e-3 -2.1774 0.0124-0.71012-0.0173-1.4062-0.036-2.0834-0.0533-1.3544-0.0422-2.6398-0.0549-3.8186-0.15522-1.1836-0.0799-2.2683-0.15361-3.2292-0.21791-0.95937-0.10505-1.7949-0.19752-2.4831-0.27275-1.3795-0.15361-2.168-0.24142-2.168-0.24142s0.77283 0.18028 2.1241 0.49537c0.67876 0.15676 1.5018 0.34802 2.4454 0.56589 0.95311 0.17872 2.0285 0.38095 3.201 0.60039 0.96097 0.19752 2.0081 0.34642 3.096 0.50477-4.209-0.25866-8.4118-0.62704-12.589-1.0958v-133.07c4.071-0.45774 8.164-0.81828 12.265-1.0769 1.4203-0.08936 2.8421-0.16619 4.2623-0.232-1.0974 0.13327-2.1711 0.27435-3.1901 0.44049-0.5079 0.07838-0.99224 0.1505-1.4782 0.22258-0.80571 0.12229-1.5911 0.24453-2.3231 0.39348-1.171 0.21791-2.2432 0.41699-3.1948 0.59412-0.94373 0.2116-1.7667 0.39504-2.4439 0.54709-1.3528 0.30567-2.1241 0.48125-2.1241 0.48125s0.78697-0.08309 2.1664-0.22729c0.68663-0.07052 1.5221-0.15521 2.48-0.25395 0.96093-0.06271 2.0441-0.13482 3.2261-0.21165 0.33238-0.02666 0.69132-0.03911 1.0393-0.05643 0.8873-0.04222 1.8059-0.07052 2.7762-0.10505 1.3513-0.05958 2.7809-0.06896 4.2576-0.06425 1.4735-0.01732 2.9988 0.01243 4.546 0.058 1.5472 0.02177 3.1195 0.10816 4.6871 0.18339 1.5692 0.05958 3.1368 0.20223 4.6777 0.29785 0.49692 0.03911 0.98443 0.08309 1.4751 0.12385 1.0315 0.08936 2.052 0.18028 3.0427 0.27275 1.4626 0.16148 2.875 0.29159 4.2122 0.46558 1.3356 0.15677 2.5975 0.3198 3.7591 0.48439 2.3232 0.3182 4.2498 0.63017 5.5869 0.85904 0.29639 0.05329 0.55962 0.10034 0.7979 0.14265 0.27727 0.05016 0.51576 0.09247 0.70701 0.127l1.3136 23.544 0.61922 11.102 2.1335-38.21c0.28395 0.03156 0.56749 0.06585 0.85121 0.09874v133.07c-0.11775 0.0124-0.23505 0.0284-0.35281 0.0409zm-27.797-191.06h0.0863 0.0863c13.4 0 25.052 7.4335 31.426 17.469-11.817-15.052-31.512-15.814-31.512-15.814 12.74 4.3078 18.72 7.595 1.9689 10.586-6.0102 1.0738-5.3784 5.1057-3.9974 8.0559 0.7822 0.05487 1.566 0.11131 2.3483 0.18028 1.8106 0.17086 3.6212 0.30096 5.3972 0.50476 1.7761 0.20067 3.5255 0.36997 5.2138 0.58628 1.6852 0.21947 3.3155 0.43107 4.8595 0.63174 1.5409 0.23044 2.9972 0.44676 4.3422 0.64898 2.6884 0.3825 4.9144 0.80888 6.4757 1.066 1.5613 0.26808 2.4517 0.4217 2.4517 0.4217s-0.89983-0.08465-2.4768-0.23355c-1.577-0.13638-3.8234-0.39188-6.5306-0.56747-1.3513-0.09563-2.8154-0.20223-4.3642-0.31354-1.5504-0.0815-3.1838-0.16775-4.8752-0.25711-1.6899-0.08465-3.4393-0.12068-5.2122-0.18499-1.7745-0.06585-3.5788-0.05799-5.38-0.08936-0.94212-0.01112-1.8826-0.0062-2.8217 0.0016-0.59566 0.02666-1.1945 0.05327-1.787 0.08149-2.1633 0.07052-4.2858 0.24924-6.3394 0.41228-2.0551 0.13166-4.0334 0.36682-5.9083 0.58314-0.93742 0.1066-1.8497 0.21005-2.7323 0.31038-0.87944 0.11758-1.7259 0.25866-2.5395 0.37935-1.6272 0.2524-3.1211 0.46558-4.4394 0.68818-1.3105 0.2571-2.4548 0.48282-3.397 0.66779-1.8812 0.36997-2.9565 0.58158-2.9565 0.58158s1.0832-0.16619 2.98-0.45774c0.94684-0.14423 2.0958-0.32136 3.4158-0.52358 1.3246-0.16619 2.8232-0.31509 4.4535-0.49849 0.81672-0.08621 1.6648-0.19125 2.5458-0.27119 0.88258-0.0627 1.7949-0.127 2.7323-0.19436 1.8749-0.13638 3.8516-0.28688 5.902-0.33234 2.0488-0.07523 4.1636-0.16459 6.3158-0.14424 1.0754-0.0032 2.1586-0.0079 3.2465-0.01112 1.0879 0.02488 2.1805 0.05016 3.2731 0.07523 2.1837 0.03288 4.3642 0.1489 6.5102 0.26804 2.1461 0.08621 4.2529 0.30256 6.2923 0.44365 2.0363 0.19125 4.0037 0.37624 5.866 0.59098 1.8591 0.22418 3.618 0.42796 5.2358 0.6678 3.237 0.44205 5.9161 0.91234 7.7831 1.2541 0.85904 0.16148 1.5362 0.29314 2.0191 0.39348 0.25552 1.0785 0.45458 2.1648 0.5894 3.259-12.042-1.7228-24.302-2.6053-36.461-2.6053-12.16 0-24.418 0.88256-36.461 2.6053 1.9783-16.063 17.43-30.918 36.374-30.916zm-33.854 53.273v-3.977c-0.25862 0.03466-0.51572 0.06896-0.77282 0.10505-0.11905 0.01555-0.23685 0.02355-0.35104 0.02355-1.2306 0-2.1774-0.91861-2.1774-2.2025v-3.8673c-0.1098 0.01416-0.21773 0.02044-0.32438 0.02044-1.2572 0-2.2228-0.93115-2.2228-2.2479v-4.1055c0-1.45 1.1678-2.8123 2.61-3.0239 12.326-1.8215 24.752-2.7323 37.179-2.7323 10.351 0 20.7 0.64115 30.993 1.9046-7.6138-0.64272-17.576-0.98916-17.576-0.98916s0.79007 3.0474-1.0738 6.5604c-1.1412-0.06425-2.2949-0.11914-3.4612-0.13792-1.1631-0.03466-2.3373-0.06896-3.5146-0.10345-1.1788 0.0016-2.3608 0.0032-3.5443 0.0049-2.3655-0.028-4.7294 0.07683-7.0542 0.16459-2.3263 0.04545-4.6072 0.27275-6.8159 0.42325-2.2119 0.12385-4.3344 0.4217-6.3503 0.64115-1.0079 0.11914-1.9877 0.23356-2.9345 0.34331-0.94213 0.15206-1.8529 0.2963-2.7276 0.43578-1.7447 0.28999-3.3515 0.5126-4.7624 0.78537-1.4061 0.29314-2.632 0.55022-3.6415 0.76185-2.0175 0.42169-3.1712 0.66309-3.1712 0.66309s1.1616-0.19596 3.1948-0.53769c1.0158-0.17246 2.2495-0.37935 3.6635-0.61764 1.4171-0.21476 3.0302-0.37624 4.7796-0.59568 0.87627-0.10505 1.7871-0.2132 2.7308-0.32607 0.9484-0.07367 1.9281-0.1489 2.9361-0.22729 2.0159-0.14108 4.1353-0.35269 6.3409-0.39032 2.2009-0.0627 4.4723-0.19907 6.7861-0.15361 2.3107 0.0049 4.6573-0.0079 7.0024 0.11287 1.1726 0.04399 2.3451 0.08936 3.513 0.13327 1.1647 0.07994 2.3263 0.15988 3.4769 0.23982 2.3059 0.12856 4.5632 0.39188 6.7501 0.59882 2.1837 0.23515 4.2889 0.51417 6.2829 0.78223 0.96408 0.1489 1.9 0.28688 2.8092 0.4248-6.3409-0.52671-12.911-0.93742-12.911-0.93742s0.29149 2.1539-0.5471 4.5931c-0.98603-0.04862-1.9799-0.11443-2.9847-0.14108-2.1382-0.05328-4.3093-0.1301-6.4804-0.10189-2.1711-0.02355-4.3407 0.05799-6.4758 0.12229-2.1335 0.06896-4.2309 0.23515-6.2594 0.34802-2.0237 0.19596-3.9817 0.34642-5.8314 0.55806-1.8466 0.23982-3.5961 0.43894-5.2028 0.67093-1.6021 0.26022-3.0709 0.50006-4.372 0.71012-1.3027 0.20849-2.4235 0.47342-3.3531 0.64742-1.8545 0.37308-2.9141 0.58628-2.9141 0.58628s1.0675-0.16774 2.9361-0.46087c0.93587-0.13482 2.0645-0.35113 3.3719-0.5032 1.3074-0.15517 2.7809-0.33078 4.3893-0.52044 1.61-0.16459 3.3609-0.28688 5.2076-0.44677 1.8482-0.13327 3.803-0.19907 5.8205-0.30723 2.0222-0.02666 4.1087-0.10345 6.2281-0.07994 2.121 0.02488 4.2749 0.03777 6.4256 0.15206 2.1507 0.06271 4.2983 0.232 6.4099 0.37464 1.0565 0.07367 2.1006 0.19281 3.1336 0.28372 1.033 0.09407 2.052 0.19281 3.0521 0.32136 1.0001 0.12068 1.983 0.23982 2.9455 0.35584 0.95938 0.13952 1.8968 0.27435 2.8107 0.40601 1.6648 0.24613 3.234 0.51573 4.6996 0.77752-6.703-0.59882-14.807-1.102-14.807-1.102s0.34661 2.505-0.8089 5.1182c-3.038-0.1097-6.076-0.1693-9.114-0.1693-10.528 0-21.057 0.65369-31.524 1.9611-0.10359 0.01243-0.20396 0.01867-0.30394 0.01867-1.1914 0-2.1115-0.89353-2.1115-2.1288zm-5.8487 158.68v-4.104c0-1.3168 0.96564-2.2495 2.2228-2.2495 0.10663 0 0.21463 8e-3 0.32437 0.0204v-3.8673c0-1.2839 0.94684-2.2025 2.1774-2.2025 0.11472 0 0.23195 8e-3 0.35104 0.0249 0.25728 0.0347 0.51416 0.0705 0.77283 0.10505v-3.977c0-1.2353 0.92016-2.1304 2.1115-2.1304 0.0987 0 0.20086 6e-3 0.30395 0.0204 10.467 1.3074 20.995 1.9611 31.524 1.9611 6.2265 0 12.453-0.23516 18.667-0.69288l-9.8053 1.1961c0.80419 1.5425 1.0424 3.0991 1.0958 4.187-0.52514 0.047-1.0456 0.0941-1.577 0.14265-2.1115 0.15521-4.2592 0.33388-6.4115 0.4248-2.1507 0.13327-4.3046 0.18499-6.4256 0.24613-2.1209 0.0611-4.2089 0.0329-6.2327 0.0517-2.0206-0.0517-3.977-0.0706-5.8299-0.14264-1.8513-0.0972-3.6055-0.1693-5.2216-0.27275-1.6146-0.12854-3.096-0.24768-4.4081-0.35269-1.3137-0.0988-2.4502-0.26177-3.3907-0.35584-1.8811-0.21164-2.9565-0.33233-2.9565-0.33233s1.0675 0.17556 2.9361 0.48125c0.93432 0.14263 2.0661 0.36211 3.3735 0.52828 1.3089 0.17086 2.7856 0.36366 4.3955 0.57531 1.6146 0.18498 3.3672 0.34486 5.2201 0.53611 1.8544 0.16619 3.8155 0.28688 5.844 0.44049 2.03 0.0831 4.1306 0.21632 6.2657 0.26338 2.1351 0.047 4.3062 0.10505 6.4789 0.0799 2.1711 0.0173 4.3422-0.0533 6.482-0.10189 2.1366-0.0847 4.2419-0.15677 6.2767-0.29314 1.0174-0.0659 2.0175-0.13167 2.9972-0.19437 0.97816-0.0815 1.9344-0.15988 2.8671-0.2367 1.8623-0.15677 3.6227-0.34332 5.2467-0.52045 0.97505-0.10976 1.8937-0.22102 2.7637-0.33078-9.5545 1.425-18.035 1.6679-18.035 1.6679 0.77443 1.4924 1.044 2.9988 1.1256 4.1181-0.98758 0.0737-1.983 0.14423-2.9894 0.19281-1.1491 0.0674-2.3075 0.13481-3.4706 0.20067-1.1647 0.0422-2.3326 0.0846-3.5004 0.12539-2.3389 0.1066-4.6777 0.11913-6.9821 0.14424-2.3044 0.0549-4.5711-0.0187-6.7673-0.0422-2.1962-5e-3 -4.314-0.13011-6.3268-0.21005-1.0064-0.0455-1.9845-0.0878-2.9314-0.1301-0.9453-0.0706-1.8576-0.13794-2.7339-0.20379-1.7526-0.13637-3.3625-0.23355-4.7859-0.36997-1.4202-0.15361-2.6586-0.28843-3.6792-0.39814-2.0426-0.22103-3.2088-0.34802-3.2088-0.34802s1.16 0.18027 3.1885 0.49693c1.0158 0.15832 2.2479 0.34957 3.6619 0.5706 1.4171 0.20067 3.0223 0.37464 4.7717 0.59255 0.87472 0.1066 1.7871 0.21631 2.7308 0.33078 0.94684 0.0862 1.925 0.17556 2.9298 0.26648 2.0128 0.17401 4.1338 0.39975 6.3362 0.5079 2.2009 0.1254 4.4755 0.30412 6.7908 0.359 2.3154 0.0815 4.6699 0.17872 7.0229 0.18027 1.1788 0.0124 2.3561 0.0267 3.5286 0.0391 1.1726-0.0142 2.342-0.0267 3.5004-0.0391 2.32-6e-3 4.6009-0.10505 6.8096-0.1693 2.2087-0.0815 4.3422-0.20222 6.366-0.31509 2.0222-0.14265 3.9378-0.25551 5.7013-0.4201 3.5287-0.28372 6.4663-0.62547 8.5246-0.87158 0.1111-0.0155 0.21019-0.028 0.31683-0.0422-11.411 1.972-24.221 2.6414-24.221 2.6414 1.9517 2.98 1.5488 6.2375 1.2572 7.5887-4.5241 0.24142-9.0529 0.36526-13.582 0.36526-12.426 0-24.853-0.9092-37.179-2.7308-1.4422-0.2132-2.61-1.5754-2.61-3.0255zm9.8664 20.735c-0.39016-0.34171-0.68663-0.76028-1.0142-1.1318-0.31682-0.37935-0.62703-0.74932-0.92959-1.1114-0.53297-0.77752-1.0095-1.5315-1.4704-2.2291-0.37637-0.74774-0.72736-1.4453-1.0534-2.0927-0.3106-0.65055-0.49376-1.2933-0.71168-1.8482-0.10359-0.28062-0.19906-0.54553-0.2915-0.79477-0.0925-0.24924-0.12527-0.50007-0.18485-0.72423-0.0355-0.15833-0.0689-0.29941-0.10171-0.44205-0.37149-1.3497-0.65215-2.7652-0.81674-4.2592 12.055 1.7275 24.326 2.61 36.497 2.61 12.171 0 24.442-0.88256 36.495-2.61-0.0942 0.85591-0.23373 1.682-0.39637 2.4909-0.0546 0.0111-0.10171 0.0218-0.1644 0.036-0.48128 0.10505-1.2086 0.24924-2.1382 0.42952-1.8608 0.35113-4.5335 0.83553-7.7643 1.2933-1.6131 0.24924-3.3688 0.46088-5.2248 0.69445-1.8576 0.22573-3.8233 0.4201-5.8566 0.6239-2.0363 0.1505-4.14 0.37779-6.2829 0.47498-2.1429 0.13011-4.3219 0.25711-6.5039 0.30256-1.0911 0.0316-2.1821 0.0627-3.2685 0.0941-1.0879 2e-3 -2.1711 3e-3 -3.2449 5e-3 -2.1523 0.0315-4.2654-0.047-6.3127-0.11131-2.0504-0.0347-4.0256-0.17401-5.902-0.30096-0.93742-0.0611-1.8498-0.12069-2.7323-0.17872-0.88098-0.0752-1.7291-0.17712-2.5458-0.25866-1.6319-0.17401-3.1321-0.31665-4.4567-0.47499-1.3199-0.19596-2.4705-0.36526-3.4189-0.50633-1.8968-0.28061-2.9816-0.44049-2.9816-0.44049s1.0738 0.21791 2.9549 0.59725c0.94058 0.1897 2.0833 0.4217 3.3939 0.68661 1.3168 0.22889 2.8091 0.4499 4.4363 0.71169 0.81357 0.12385 1.6601 0.26963 2.5395 0.39188 0.88253 0.10505 1.7949 0.2132 2.7308 0.32451 1.8764 0.22729 3.8547 0.47185 5.9098 0.6145 2.0551 0.17401 4.1792 0.36366 6.3425 0.44676 1.0832 0.0549 2.1742 0.10976 3.2684 0.16619 1.0957 0.0267 2.1962 0.0533 3.2966 0.0799 2.2025 0.0705 4.4034 0.058 6.5729 0.0409 2.1711 0.0142 4.3015-0.10345 6.3692-0.14735 0.0355-2e-3 0.0707-3e-3 0.10663-5e-3 -5.079 1.2337-13.108 2.6398-22.852 2.4533-13.047-0.24924-19.642 2.2182-17.079 6.9601 0.19285 0.11286 0.3826 0.22573 0.57687 0.34015 0.24618 0.1458 0.49377 0.29314 0.743 0.44049 0.26173 0.1254 0.52675 0.2524 0.79168 0.38091 0.52984 0.25395 1.066 0.5126 1.6068 0.77282 0.56122 0.21947 1.1287 0.44205 1.7009 0.66623 0.28527 0.11287 0.57215 0.22729 0.86058 0.34016 0.29328 0.10188 0.59415 0.18809 0.89196 0.28372 0.59726 0.18654 1.1992 0.37464 1.8075 0.56433 0.6145 0.16304 1.2415 0.30257 1.8686 0.45617 1.2463 0.33705 2.5473 0.5032 3.839 0.76028 0.65054 0.11131 1.3105 0.17246 1.9689 0.26022 0.65996 0.0752 1.3199 0.18499 1.983 0.21476 1.3278 0.0894 2.6461 0.2132 4.0146 0.21476l2.0159 0.0517 2.0128-0.0329c1.3403 3e-3 2.6649-0.12856 3.9848-0.19908 2.6242-0.27274 5.2122-0.5706 7.6546-1.16 2.4408-0.57531 4.7812-1.2494 6.8912-2.1617 1.0785-0.40285 2.0551-0.9484 3.0286-1.4171 0.48439-0.24142 0.92488-0.53926 1.3779-0.79791 0.44521-0.27119 0.90138-0.51104 1.2964-0.81829 0.81513-0.58314 1.6131-1.1271 2.2871-1.7463 0.34792-0.29785 0.68817-0.58784 1.0174-0.86844 0.3026-0.31194 0.59725-0.6145 0.88257-0.90607 0.27729-0.29941 0.57843-0.56434 0.81358-0.86532 0.23818-0.2994 0.46715-0.58784 0.68818-0.86531 0.21951-0.27901 0.43103-0.54709 0.6333-0.80261 0.17551-0.27275 0.34171-0.53298 0.50007-0.78066 0.30705-0.50163 0.62232-0.92802 0.83709-1.3372 0.21151-0.41072 0.39192-0.75871 0.53767-1.0424 0.29016-0.5659 0.44675-0.86688 0.44675-0.86688s-0.13148 0.31194-0.37636 0.8998c-0.12223 0.2947-0.27283 0.65682-0.45147 1.0832-0.17553 0.4264-0.4656 0.87785-0.74932 1.4046-0.14575 0.26337-0.30083 0.53925-0.46245 0.82926-0.18795 0.27119-0.38569 0.55493-0.59254 0.85121-0.20707 0.29469-0.42303 0.60352-0.64743 0.92331-0.22263 0.32136-0.50946 0.60822-0.77594 0.93115-0.27418 0.31665-0.55652 0.64428-0.84651 0.98132-0.32126 0.30883-0.65053 0.62703-0.98914 0.95309-0.65529 0.68034-1.4547 1.2635-2.2668 1.9046-0.39637 0.33545-0.85277 0.60196-1.298 0.90137-0.45462 0.28688-0.89982 0.61293-1.3858 0.88255-0.97972 0.52985-1.9783 1.113-3.0725 1.566-2.146 1.0048-4.5272 1.7886-7.0275 2.4125-0.62863 0.1458-1.2619 0.29314-1.9 0.44049-0.64272 0.11602-1.2917 0.232-1.9438 0.34802l-0.98292 0.17246-0.99385 0.12385c-0.66622 0.0768-1.334 0.15361-2.0065 0.232-1.3466 0.0799-2.7041 0.22417-4.0711 0.22889l-2.0488 0.047-2.052-0.0391c-1.3481-6e-3 -2.7339-0.14265-4.1024-0.24453-0.68817-0.036-1.3607-0.15206-2.0379-0.232-0.6741-0.0956-1.3497-0.16148-2.016-0.28061-1.3277-0.26493-2.6602-0.45617-3.9378-0.83083-0.64116-0.17085-1.2823-0.32607-1.9125-0.50633-0.62392-0.2085-1.2415-0.41383-1.8545-0.61763-0.30572-0.10506-0.61295-0.19908-0.91237-0.31039-0.29639-0.12385-0.59254-0.24613-0.88569-0.36837-0.58468-0.24768-1.1647-0.49222-1.7369-0.73363-0.55336-0.28844-1.1004-0.57218-1.6413-0.85278-0.26972-0.14108-0.53767-0.28061-0.80419-0.42009-0.25417-0.15988-0.5063-0.32136-0.75715-0.47969-0.50164-0.3182-0.9954-0.63174-1.4813-0.94212-0.46561-0.34171-0.91081-0.69601-1.3513-1.0393-0.9092-0.65212-1.6444-1.4563-2.4-2.1586zm69.201-201.09c-0.74932-8.2612-4.7922-16.461-11.367-22.86-7.6059-7.4006-17.488-11.476-27.826-11.476h-0.1725c-10.34 0-20.222 4.0757-27.828 11.476-6.5745 6.3974-10.616 14.597-11.367 22.86-2.0332 0.98602-3.4628 3.1085-3.4613 5.4239v4.1055c0 1.9454 1.0111 3.6102 2.5474 4.5021v1.5927c-1e-3 1.4061 0.52981 2.7104 1.4923 3.6729 0.51733 0.51731 1.1334 0.9092 1.809 1.16v1.218c0 2.4878 1.6961 4.5037 4.0146 4.9771v132.47c-2.3185 0.47342-4.0146 2.4894-4.0146 4.9771v1.2196c-0.67564 0.25079-1.2917 0.64114-1.809 1.16-0.96251 0.96093-1.4939 2.2652-1.4923 3.6713v1.588c-0.3777 0.21791-0.72737 0.48595-1.0409 0.79791-0.9719 0.97034-1.5065 2.2887-1.5065 3.7105v4.104c0 2.2495 1.3497 4.3172 3.2904 5.3377 0.68036 8.7644 4.7059 15.946 11.771 20.874 6.8629 4.7874 16.377 7.3191 27.513 7.3191h0.33549c11.136 0 20.65-2.5301 27.513-7.3191 7.0651-4.9285 11.091-12.11 11.771-20.874 1.9391-1.0205 3.2888-3.0866 3.2904-5.3361v-4.1055c0-1.4218-0.53456-2.7402-1.508-3.7105-0.31373-0.31194-0.66313-0.58001-1.0393-0.79791v-1.588c0-2.2401-1.3544-4.1055-3.3014-4.8313v-1.218c0-2.4893-1.6962-4.5053-4.0162-4.9787v-132.47c2.32-0.47341 4.0162-2.4893 4.0162-4.9771v-1.2196c1.9485-0.7258 3.3014-2.5912 3.3014-4.8313v-1.588c0.37637-0.21791 0.72577-0.48439 1.0393-0.79791 0.97189-0.97034 1.508-2.2871 1.508-3.7105v-4.104c-1e-3 -2.3153-1.4296-4.4379-3.4628-5.4239" style="fill:#3f3f3f"/>
<path id="path208" d="m81.309 232.56c1.4046 0.27902 3.0506 0.56591 4.8235 0.80105 1.7714 0.2555 3.6729 0.43578 5.5744 0.60039 0.9515 0.0596 1.903 0.11912 2.8405 0.17712 0.93897 0.0533 1.8639 0.0627 2.7574 0.0956 1.7886 0.0267 3.4581 0.0249 4.8877-0.0378 1.4296-0.0315 2.6194-0.1489 3.4518-0.19907 0.83243-0.0643 1.3074-0.11602 1.3074-0.11602s-0.47654-0.0455-1.3089-0.10034c-0.83082-0.0533-2.0175-0.12856-3.4409-0.22102-1.4218-0.0878-3.0787-0.19125-4.8548-0.30096-1.773-0.12856-3.665-0.26493-5.5555-0.4013-0.94372-0.0768-1.8905-0.13482-2.8186-0.22574-0.9296-0.0799-1.8451-0.15988-2.7308-0.23671-1.7698-0.1693-3.4236-0.32607-4.8391-0.46087-1.4171-0.1489-2.6022-0.25239-3.4283-0.35428-0.82928-0.0925-1.3027-0.1458-1.3027-0.1458s0.45463 0.1458 1.2635 0.3574c0.81046 0.19436 1.9674 0.49536 3.3735 0.76812" style="fill:#3f3f3f"/>
<path id="path210" d="m82.471 224.79c-0.74304-0.0737-1.1679-0.11602-1.1679-0.11602s0.40926 0.12696 1.1349 0.30723c0.72737 0.16774 1.7651 0.4264 3.0255 0.65996 1.2604 0.23515 2.737 0.47968 4.325 0.67563 1.588 0.2132 3.2904 0.36211 4.9928 0.49693 0.85278 0.0486 1.7056 0.0956 2.5458 0.14265 0.83868 0.0391 1.6664 0.0455 2.4674 0.069 1.6005 0.0173 3.0944 8e-3 4.3751-0.0517 1.2792-0.0329 2.3451-0.13952 3.0897-0.18654 0.74461-0.058 1.1694-0.10505 1.1694-0.10505s-0.42658-0.0422-1.171-0.0909c-0.74461-0.047-1.8074-0.11441-3.0819-0.19436-1.2729-0.0752-2.7574-0.16304-4.3485-0.25551-1.588-0.10505-3.281-0.21791-4.9756-0.32918-3.386-0.23355-6.7673-0.51574-9.3084-0.74147-1.2713-0.11602-2.331-0.2132-3.0725-0.28061" style="fill:#3f3f3f"/>
<path id="path212" d="m98.848 60.578c-1.0754-0.0032-2.331-0.01112-3.6744 0.05643-1.3434 0.06896-2.7747 0.17086-4.2027 0.2947-1.4265 0.16459-2.8483 0.35429-4.1776 0.55493-1.3293 0.20534-2.5583 0.46401-3.6102 0.68347-1.0534 0.21476-1.9187 0.45617-2.527 0.60822-0.60354 0.1693-0.9484 0.26492-0.9484 0.26492s0.35415-0.04545 0.97661-0.12385c0.62076-0.08309 1.5081-0.20063 2.5693-0.34171 1.0597-0.15832 2.3044-0.28217 3.629-0.45774 1.3262-0.1693 2.7433-0.32292 4.1619-0.45304 1.4171-0.15677 2.8358-0.28999 4.1698-0.39032 1.3325-0.09247 2.5756-0.22258 3.6462-0.28061 1.0675-0.07367 1.9611-0.13792 2.585-0.18183 0.62546-0.04701 0.98287-0.07367 0.98287-0.07367s-0.35728-0.02488-0.98444-0.06896c-0.62548-0.02666-1.5206-0.09092-2.5959-0.09092" style="fill:#3f3f3f"/>
<path id="path214" d="m86.534 69.685c0.93898-0.13952 2.0426-0.24142 3.2167-0.39659 1.1757-0.14735 2.4329-0.28061 3.6917-0.39188 1.2557-0.13952 2.5128-0.2555 3.6948-0.34331 1.182-0.07683 2.284-0.19752 3.2324-0.24613 0.9484-0.06896 1.74-0.1254 2.2934-0.16459 0.55491-0.04399 0.87157-0.06896 0.87157-0.06896s-0.31684-0.028-0.87157-0.07523c-0.55492-0.02978-1.3497-0.10034-2.3028-0.1066-0.95311-0.01112-2.0692-0.03155-3.2606 0.02177-1.1914 0.05799-2.4627 0.14108-3.7309 0.24768-1.265 0.14579-2.527 0.3151-3.7058 0.49379-1.1788 0.18498-2.2683 0.42325-3.201 0.62234-0.93427 0.19596-1.6993 0.41854-2.2369 0.55806-0.53457 0.15677-0.84024 0.24453-0.84024 0.24453s0.31505-0.03777 0.86845-0.10345c0.55021-0.07056 1.3372-0.17086 2.2808-0.29159" style="fill:#3f3f3f"/>
<path id="path216" d="m91.199 76.277c1.044-0.11131 2.1617-0.20849 3.2794-0.28688 1.1145-0.10505 2.2322-0.1897 3.2825-0.25079 1.0487-0.05172 2.0285-0.1489 2.8703-0.18028 0.8418-0.05172 1.5456-0.09407 2.0379-0.1254 0.49221-0.03466 0.77438-0.05487 0.77438-0.05487s-0.28039-0.03288-0.77282-0.0878c-0.49222-0.03911-1.1961-0.12229-2.0426-0.14735-0.8449-0.02843-1.8356-0.07212-2.8937-0.04399-1.0597 0.02978-2.1884 0.08309-3.317 0.15522-1.124 0.11131-2.2464 0.24453-3.2966 0.38721-1.0487 0.14579-2.0191 0.34802-2.8483 0.51417-0.8308 0.16459-1.5127 0.359-1.9924 0.47812-0.47497 0.13481-0.74776 0.21165-0.74776 0.21165s0.28217-0.02488 0.77443-0.07212c0.48905-0.05016 1.1914-0.12229 2.03-0.20849 0.83551-0.10505 1.8184-0.17086 2.8624-0.28843" style="fill:#3f3f3f"/>
<path id="path218" d="m82.581 45.651s0.34038-0.05487 0.9343-0.1505c0.591-0.10972 1.4406-0.23044 2.4549-0.39659 1.0111-0.17712 2.204-0.31194 3.4706-0.49379 1.2698-0.17241 2.6289-0.32136 3.9895-0.43423 1.3591-0.13952 2.7213-0.24298 4.0021-0.30727 1.2792-0.05328 2.4752-0.14264 3.502-0.15361 1.0268-0.02355 1.8858-0.0627 2.4862-0.0627 0.60197-0.01556 0.94527-0.02355 0.94527-0.02355s-0.34036-0.04399-0.939-0.12068c-0.59882-0.058-1.4547-0.16614-2.4878-0.20849-1.0314-0.04862-2.2385-0.10034-3.5302-0.07212-1.2933 0.03466-2.6712 0.1066-4.046 0.2132-1.3716 0.1489-2.7402 0.33234-4.0162 0.53612-1.276 0.2132-2.4532 0.48282-3.4581 0.72109-1.0064 0.232-1.8294 0.49536-2.4063 0.66309-0.57374 0.18499-0.90137 0.28999-0.90137 0.28999" style="fill:#3f3f3f"/>
<path id="path220" d="m94.287 220.24c1.0597 0.0706 2.1884 0.14423 3.3186 0.21791 1.1318 0.0409 2.2636 0.0815 3.3249 0.11914 1.0597 0.0422 2.0536 0.0218 2.9016 0.0347 0.85122 0.0111 1.5613-0.0267 2.0567-0.0315 0.49692-0.0205 0.78065-0.0329 0.78065-0.0329s-0.28084-0.0409-0.77282-0.1113c-0.49378-0.0549-1.1961-0.16304-2.0426-0.23982-0.8465-0.0721-1.8325-0.19281-2.8922-0.25867-1.0597-0.069-2.1884-0.14264-3.3186-0.21631-1.1318-0.0409-2.2636-0.0815-3.3233-0.11914-1.0613-0.0391-2.0536-0.0218-2.9032-0.0347-0.84961-9e-3 -1.5613 0.0284-2.0567 0.0316-0.49692 0.0204-0.78068 0.0329-0.78068 0.0329s0.28038 0.0409 0.77282 0.11131c0.49381 0.0549 1.1961 0.16148 2.0426 0.23826 0.8465 0.0737 1.8325 0.19125 2.8922 0.25866" style="fill:#3f3f3f"/>
</g>
</svg>
