<?xml version="1.0" encoding="UTF-8" standalone="no"?>
<svg
   xmlns:dc="http://purl.org/dc/elements/1.1/"
   xmlns:cc="http://creativecommons.org/ns#"
   xmlns:rdf="http://www.w3.org/1999/02/22-rdf-syntax-ns#"
   xmlns:svg="http://www.w3.org/2000/svg"
   xmlns="http://www.w3.org/2000/svg"
   xmlns:sodipodi="http://sodipodi.sourceforge.net/DTD/sodipodi-0.dtd"
   xmlns:inkscape="http://www.inkscape.org/namespaces/inkscape"
   width="86.399353mm"
   height="115.5499mm"
   viewBox="0 0 86.399353 115.5499"
   version="1.1"
   id="svg1884"
   sodipodi:docname="eliasbarber.svg"
   inkscape:version="1.0.2 (e86c870879, 2021-01-15)">
  <defs
     id="defs1878" />
  <sodipodi:namedview
     id="base"
     pagecolor="#ffffff"
     bordercolor="#666666"
     borderopacity="1.0"
     inkscape:pageopacity="0.0"
     inkscape:pageshadow="2"
     inkscape:zoom="0.7"
     inkscape:cx="86.308574"
     inkscape:cy="-43.043783"
     inkscape:document-units="mm"
     inkscape:current-layer="layer1"
     inkscape:document-rotation="0"
     showgrid="false"
     inkscape:pagecheckerboard="true"
     inkscape:window-width="1506"
     inkscape:window-height="1020"
     inkscape:window-x="50"
     inkscape:window-y="32"
     inkscape:window-maximized="0" />
  <metadata
     id="metadata1881">
    <rdf:RDF>
      <cc:Work
         rdf:about="">
        <dc:format>image/svg+xml</dc:format>
        <dc:type
           rdf:resource="http://purl.org/dc/dcmitype/StillImage" />
        <dc:title></dc:title>
      </cc:Work>
    </rdf:RDF>
  </metadata>
  <g
     inkscape:label="Layer 1"
     inkscape:groupmode="layer"
     id="layer1"
     transform="translate(-58.331306,-58.229036)">
    <path
       style="display:inline;fill:#ffffff;stroke-width:0.338412"
       d="m 95.188053,173.45889 c -0.13321,-0.17581 0.0104,-0.31964 0.31967,-0.31964 0.31577,0 0.66897,-0.4374 0.80659,-0.99892 0.30004,-1.22407 0.26842,-3.17979 -0.0406,-2.5172 -0.12298,0.26371 -0.33306,0.55138 -0.46671,0.6393 -0.13365,0.0879 -0.45605,0.55538 -0.71638,1.03885 -0.55227,1.02567 -1.27359,1.16145 -1.27359,0.23973 -0.14978,-0.69338 -0.8034,-0.97147 -0.98023,-1.60145 -0.374807,-1.39242 -1.352843,-2.87359 -1.897461,-2.87359 -0.258402,0 -0.802133,-0.50345 -1.208246,-1.11877 -2.20379,-2.75698 -0.636824,0.52687 -0.684193,0.80956 -0.03775,1.30921 -0.652685,0.35889 -1.370818,-0.25019 -0.673665,-0.57136 -1.380533,-1.03884 -1.570823,-1.03884 -0.190294,0 -0.658388,-0.43152 -1.040219,-0.95894 -0.381822,-0.52742 -0.820153,-0.95894 -0.974065,-0.95894 -0.153913,0 -0.716878,-0.68325 -1.251031,-1.51832 -0.534142,-0.83507 -1.103387,-1.56627 -1.264981,-1.62487 -0.161595,-0.0586 -0.293816,-0.31032 -0.293816,-0.55938 0,-0.72991 -0.71293,-0.0371 -0.902384,0.26637 -0.173953,0.31239 -0.149378,0.30053 -0.457591,0.009 -0.156314,-0.14809 -0.511622,-0.75475 -0.789578,-0.84178 -0.277956,-0.0871 -0.734622,-0.8881 -1.014817,-1.78015 -0.280198,-0.89208 -0.640149,-1.62194 -0.799894,-1.62194 -0.159738,0 -0.443876,-0.31567 -0.460208,-0.7192 l -0.16977,-0.71921 -0.05336,0.71921 c -0.08232,1.10946 -0.717908,0.85722 -1.001513,-0.37628 -0.138531,-0.60254 -0.419141,-1.14194 -0.62358,-1.19869 -0.516675,-0.14342 -1.17047,-3.17142 -1.17047,-5.42097 0,-1.03082 -0.100732,-1.87424 -0.223853,-1.87424 -0.467553,0 -1.343129,0.9351 -1.343129,1.43444 0,1.10992 -0.753432,0.0646 -1.210625,-1.67963 -0.264187,-1.00788 -0.628725,-1.96917 -0.810092,-2.13618 -0.181365,-0.16702 -0.333677,-0.88622 -0.338464,-1.59824 l -0.0087,-1.29455 -0.766066,0.79911 c -1.956197,2.06402 -0.861257,-4.35729 -0.783476,-4.864 l -1.028912,0.21071 c -0.748853,0.15336 -0.978398,0.10023 -0.838851,-0.20508 0.104532,-0.22869 0.426672,-0.9552 0.715865,-1.61448 0.287756,-0.81057 1.143236,-1.27652 1.151898,-1.99777 0,-0.92188 -0.62154,-1.01593 -1.896891,-0.28705 -1.736207,0.67182 -0.06554,-7.02963 -0.04977,-7.51264 0.203905,-6.45727 0.443133,-7.63832 1.698242,-8.3842 0.301723,-0.17932 -0.533688,-0.95159 -2.7581,-2.54966 -1.445987,-1.17624 -4.768679,-5.24294 -4.828373,-6.67834 0,-1.14904 0.244226,-1.17114 2.648549,-0.23973 2.337852,0.90568 7.066871,0.98023 8.907937,0.14045 1.000052,-0.4165 2.147411,-0.67733 2.938089,-1.18549 3.9431,-2.45598 8.972998,-4.38254 13.593856,-4.46103 2.778231,-0.69583 9.056454,2.3311 10.429284,1.7343 3.269687,-1.45581 10.644827,-2.19054 13.838067,-1.01758 0.61459,0.26387 1.82257,0.74818 2.68441,1.07625 5.10766,1.87072 11.1846,5.46948 15.90089,4.19682 2.09392,-0.74271 3.51144,-1.20298 3.70483,-1.20298 0.36849,0 0.15658,1.21588 -0.36746,2.1085 -0.2997,0.51049 -0.84728,1.46518 -1.21682,2.12156 -0.36958,0.6564 -1.71094,2.06524 -2.98082,3.13076 -1.2699,1.06553 -2.30888,2.1363 -2.30888,2.37948 0,0.24316 0.18915,1.55181 0.42034,2.90808 0.4641,2.72268 -0.13177,9.06414 -0.88756,9.44526 -0.22798,0.11493 -0.50628,1.25538 -0.61842,2.53422 -0.18014,2.05429 -0.2657,2.25624 -0.73437,1.73325 -0.49385,-0.5511 -0.53047,-0.53188 -0.53047,0.27854 0,0.47876 0.25541,1.36928 0.56763,1.97896 0.47996,0.93728 0.48352,1.10849 0.0231,1.10849 -0.29948,0 -0.65347,-0.14382 -0.78662,-0.31964 -0.61144,-0.80726 -0.78348,-0.0526 -0.78348,3.43652 0,2.93426 -0.16684,4.1225 -0.76296,5.43366 -0.14689,0.99246 -1.27411,1.63286 -1.57671,2.39735 -0.29114,0.89808 -0.28731,0.69192 -0.59426,-0.0799 -0.3126,-0.786 -0.31854,-0.78339 -0.36116,0.15982 -0.0785,1.73307 -0.52019,3.34677 -0.86825,3.17125 -0.18797,-0.0948 -0.34174,0.0336 -0.34174,0.28536 0,0.62157 -1.49674,3.34264 -1.96987,3.58123 -0.20988,0.10588 -0.39285,-0.21081 -0.40788,-0.70595 -0.0222,-0.72854 -0.13522,-0.61154 -0.59946,0.62041 -0.31472,0.83507 -0.70013,1.51833 -0.85645,1.51833 -0.15635,0 -0.52895,0.46748 -0.82804,1.03884 -0.29903,0.57137 -1.03732,1.41895 -1.64063,1.8835 -0.95532,0.68515 -1.03812,1.16901 -1.25006,0 -0.14983,-0.82629 -0.15988,-0.82207 -0.46269,0.19421 -0.17021,0.57136 -0.42984,1.03884 -0.57689,1.03884 -0.14707,0 -0.59035,0.61134 -0.9851,1.35849 -0.39473,0.74718 -1.20866,1.76053 -1.8087,2.2519 -1.07584,0.88098 -1.09275,0.88354 -1.21846,0.18486 -0.23401,-1.30055 -0.93353,-0.94504 -1.68369,0.85573 -0.40837,0.98031 -1.06265,1.9222 -1.45395,2.09305 -0.39127,0.17088 -0.71143,0.49448 -0.71143,0.7191 0,0.22465 -0.51522,0.8112 -1.14494,1.30347 -1.0145,0.74639 -1.08802,1.22569 -1.30251,-0.0201 -0.27571,-1.27391 -3.625897,4.48589 -5.499547,4.67866 -0.34382,0 -0.73407,-0.14385 -0.86724,-0.31965 z m 13.568837,-52.97815 c 1.2069,-0.58173 1.6677,-1.43183 1.44786,-2.67114 -0.11433,-0.64445 -1.67497,-0.85602 -4.25016,-1.24006 -6.774617,-3.02475 -8.636307,-1.75327 -15.140726,-0.20378 -2.995444,0.48661 -5.22358,-0.1848 -5.22358,2.17161 -0.26838,3.54408 11.536099,2.66827 13.909279,2.65896 8.797547,0 8.242087,-0.22618 9.257327,-0.71554 z M 90.519331,60.452884 c 2.593972,-2.25331 3.369432,-1.1079 4.021112,1.1383 0.72487,2.49854 0.25586,4.64291 0.25586,13.09703 l 0.22769,18.57123 c 0.35661,0.0266 0.72696,0.0482 1.10788,0.0661 5.533967,0.25884 13.297297,-0.28844 13.561787,1.92232 -10e-4,2.84666 -12.259787,1.49597 -19.633228,1.49597 4.643761,-11.81836 -11.379338,-25.12152 0.458899,-36.29095 z m 21.003729,26.32612 c 0.12615,-9.10873 0.18183,-9.35373 2.07705,-9.13589 0.75645,0.0869 0.78678,0.38762 0.87932,8.71788 0.10233,9.21798 -0.0758,10.28218 -1.75673,10.49954 -2.26979,-0.31697 -1.22627,-8.39136 -1.19964,-10.08153 z m 21.17416,-11.95837 c -3.25057,-0.74643 -4.4209,-1.87583 -2.8736,-2.77306 0.69547,-0.40332 0.80935,-0.39561 1.84167,0.12473 1.48996,0.75095 5.83146,0.96757 7.96178,0.39722 1.24224,-0.33259 1.50508,-0.53166 1.50508,-1.14004 0,-1.14299 -1.73765,-2.01453 -4.96756,-2.49157 -4.28146,-0.63236 -8.40555,-1.65023 -8.40055,-4.47986 0.19556,-4.0673 12.82394,-7.8868 15.95905,-5.48133 0.46894,0.36919 0.74438,3.24144 0.89084,4.24638 0.2246,1.5411 0.18117,1.66637 -0.63546,1.83246 -1.11572,0.2269 -2.04299,-0.25514 -2.04299,-1.06202 -1.22856,-1.7732 -7.89536,0.19131 -8.02063,1.61262 -0.0107,0.45517 0.34977,0.59019 2.21621,0.83037 5.75179,0.74017 8.69044,2.77259 8.03822,5.55941 -0.27846,1.18988 -1.16427,1.86139 -3.42063,2.59314 -1.95162,0.63292 -5.81921,0.74414 -8.05143,0.23155 z m -12.90157,-0.81845 -1.22914,-1.00292 -2.67123,0.87255 c -2.48871,0.81292 -2.81901,0.84695 -4.83371,0.49775 -4.50563,-2.02605 -5.81685,-4.09331 -5.92181,-6.14836 -0.13237,-2.59214 1.93545,-5.60739 5.07356,-7.35737 5.10509,-2.84689 11.80985,-3.41906 10.64404,0.56786 -0.15742,0.53836 -0.39718,2.5364 -0.39161,4.48797 0.009,2.82375 0.20262,3.95128 0.95288,5.73192 0.88925,2.11047 0.90484,2.26921 0.27449,2.79553 -0.63452,0.52983 -0.73035,0.50737 -1.89744,-0.44491 z m -3.45337,-2.82721 1.17525,-0.63222 v -4.72284 c 0,-3.74058 -0.12169,-4.91993 -0.52172,-5.05704 -1.01795,-0.34891 -3.40979,-0.16121 -4.37509,0.34332 -2.40456,0.88381 -3.66353,3.06867 -4.12128,5.10979 -0.52288,4.71463 3.33103,7.19672 7.84284,4.95899 z m -4.03356,-2.42818 c -1.08055,-0.67307 -1.11056,-1.89698 -0.066,-2.69235 0.75826,-0.5774 0.8444,-0.57692 1.7626,0.0102 1.16103,0.74173 1.14588,2.05909 -0.0317,2.75002 -0.68175,0.40003 -0.93079,0.38995 -1.6649,-0.0673 z m -53.859696,-3.07027 c 1.963676,-4.86815 8.783378,-7.37927 12.659339,-7.2281 5.569476,0.21723 9.570799,4.91566 2.701943,7.43184 -1.209621,0.44311 -3.960659,1.35338 -6.078198,2.07447 l -3.854284,1.30659 1.043738,0.83676 c 2.820858,2.26146 8.841434,2.30793 12.251497,0.0946 1.571645,-1.02011 2.627368,-0.98989 3.090348,0.0885 0.714926,1.66518 -6.987505,4.54005 -11.420351,4.71864 -5.849921,0.40733 -11.394847,-4.02369 -10.394032,-9.32324 z m 15.610841,-2.40097 c 0.838846,-0.47652 1.369853,-1.02686 -0.189519,-1.51217 -2.19784,-0.68401 -4.918116,-0.63304 -6.573295,0.12319 -1.330645,0.60795 -2.860319,2.27923 -3.491909,3.81516 -0.282236,0.68636 -0.208537,0.74323 0.736166,0.56794 3.309397,-0.95733 6.525628,-1.3775 9.518557,-2.99412 z"
       id="path243"
       sodipodi:nodetypes="csssssccscccssssssccsssscssssssssscccssccccsccscccccccsssssssssssssscccssssssssccssssssssccccccsccccsccccscccccscccssssccssccsssscscsccssssscsccsscccccscccccscsssscccsssccs"
       inkscape:export-xdpi="37.560001"
       inkscape:export-ydpi="37.560001" />
  </g>
</svg>
