<svg id="svg8" width="500mm" height="500mm" version="1.1" viewBox="0 0 500 500" xmlns="http://www.w3.org/2000/svg">
<g id="layer2">
<g id="layer15" transform="matrix(4.7372 0 0 4.7372 -244.22 -443.39)">
<path id="path243" d="m103.35 183.45c-0.13321-0.17581 0.0104-0.31964 0.31967-0.31964 0.31577 0 0.66897-0.4374 0.80659-0.99892 0.30004-1.2241 0.26842-3.1798-0.0406-2.5172-0.12298 0.26371-0.33306 0.55138-0.46671 0.6393-0.13365 0.0879-0.45605 0.55538-0.71638 1.0388-0.55227 1.0257-1.2736 1.1614-1.2736 0.23973-0.14978-0.69338-0.8034-0.97147-0.98023-1.6014-0.37481-1.3924-1.3528-2.8736-1.8975-2.8736-0.2584 0-0.80213-0.50345-1.2082-1.1188-2.2038-2.757-0.63682 0.52687-0.68419 0.80956-0.03775 1.3092-0.65268 0.35889-1.3708-0.25019-0.67366-0.57136-1.3805-1.0388-1.5708-1.0388-0.19029 0-0.65839-0.43152-1.0402-0.95894-0.38182-0.52742-0.82015-0.95894-0.97406-0.95894s-0.71688-0.68325-1.251-1.5183c-0.53414-0.83507-1.1034-1.5663-1.265-1.6249s-0.29382-0.31032-0.29382-0.55938c0-0.72991-0.71293-0.0371-0.90238 0.26637-0.17395 0.31239-0.14938 0.30053-0.45759 9e-3 -0.15631-0.14809-0.51162-0.75475-0.78958-0.84178-0.27796-0.0871-0.73462-0.8881-1.0148-1.7802-0.2802-0.89208-0.64015-1.6219-0.79989-1.6219s-0.44388-0.31567-0.46021-0.7192l-0.16977-0.71921-0.05336 0.71921c-0.08232 1.1095-0.71791 0.85722-1.0015-0.37628-0.13853-0.60254-0.41914-1.1419-0.62358-1.1987-0.51668-0.14342-1.1705-3.1714-1.1705-5.421 0-1.0308-0.10073-1.8742-0.22385-1.8742-0.46755 0-1.3431 0.9351-1.3431 1.4344 0 1.1099-0.75343 0.0646-1.2106-1.6796-0.26419-1.0079-0.62872-1.9692-0.81009-2.1362-0.18136-0.16702-0.33368-0.88622-0.33846-1.5982l-0.0087-1.2946-0.76607 0.79911c-1.9562 2.064-0.86126-4.3573-0.78348-4.864l-1.0289 0.21071c-0.74885 0.15336-0.9784 0.10023-0.83885-0.20508 0.10453-0.22869 0.42667-0.9552 0.71586-1.6145 0.28776-0.81057 1.1432-1.2765 1.1519-1.9978 0-0.92188-0.62154-1.0159-1.8969-0.28705-1.7362 0.67182-0.06554-7.0296-0.04977-7.5126 0.2039-6.4573 0.44313-7.6383 1.6982-8.3842 0.30172-0.17932-0.53369-0.95159-2.7581-2.5497-1.446-1.1762-4.7687-5.2429-4.8284-6.6783 0-1.149 0.24423-1.1711 2.6485-0.23973 2.3379 0.90568 7.0669 0.98023 8.9079 0.14045 1.0001-0.4165 2.1474-0.67733 2.9381-1.1855 3.9431-2.456 8.973-4.3825 13.594-4.461 2.7782-0.69583 9.0565 2.3311 10.429 1.7343 3.2697-1.4558 10.645-2.1905 13.838-1.0176 0.61459 0.26387 1.8226 0.74818 2.6844 1.0762 5.1077 1.8707 11.185 5.4695 15.901 4.1968 2.0939-0.74271 3.5114-1.203 3.7048-1.203 0.36849 0 0.15658 1.2159-0.36746 2.1085-0.2997 0.51049-0.84728 1.4652-1.2168 2.1216-0.36958 0.6564-1.7109 2.0652-2.9808 3.1308-1.2699 1.0655-2.3089 2.1363-2.3089 2.3795 0 0.24316 0.18915 1.5518 0.42034 2.9081 0.4641 2.7227-0.13177 9.0641-0.88756 9.4453-0.22798 0.11493-0.50628 1.2554-0.61842 2.5342-0.18014 2.0543-0.2657 2.2562-0.73437 1.7332-0.49385-0.5511-0.53047-0.53188-0.53047 0.27854 0 0.47876 0.25541 1.3693 0.56763 1.979 0.47996 0.93728 0.48352 1.1085 0.0231 1.1085-0.29948 0-0.65347-0.14382-0.78662-0.31964-0.61144-0.80726-0.78348-0.0526-0.78348 3.4365 0 2.9343-0.16684 4.1225-0.76296 5.4337-0.14689 0.99246-1.2741 1.6329-1.5767 2.3974-0.29114 0.89808-0.28731 0.69192-0.59426-0.0799-0.3126-0.786-0.31854-0.78339-0.36116 0.15982-0.0785 1.7331-0.52019 3.3468-0.86825 3.1712-0.18797-0.0948-0.34174 0.0336-0.34174 0.28536 0 0.62157-1.4967 3.3426-1.9699 3.5812-0.20988 0.10588-0.39285-0.21081-0.40788-0.70595-0.0222-0.72854-0.13522-0.61154-0.59946 0.62041-0.31472 0.83507-0.70013 1.5183-0.85645 1.5183-0.15635 0-0.52895 0.46748-0.82804 1.0388-0.29903 0.57137-1.0373 1.419-1.6406 1.8835-0.95532 0.68515-1.0381 1.169-1.2501 0-0.14983-0.82629-0.15988-0.82207-0.46269 0.19421-0.17021 0.57136-0.42984 1.0388-0.57689 1.0388-0.14707 0-0.59035 0.61134-0.9851 1.3585-0.39473 0.74718-1.2087 1.7605-1.8087 2.2519-1.0758 0.88098-1.0928 0.88354-1.2185 0.18486-0.23401-1.3006-0.93353-0.94504-1.6837 0.85573-0.40837 0.98031-1.0626 1.9222-1.454 2.093-0.39127 0.17088-0.71143 0.49448-0.71143 0.7191 0 0.22465-0.51522 0.8112-1.1449 1.3035-1.0145 0.74639-1.088 1.2257-1.3025-0.0201-0.27571-1.2739-3.6259 4.4859-5.4996 4.6787-0.34382 0-0.73407-0.14385-0.86724-0.31965zm13.569-52.978c1.2069-0.58173 1.6677-1.4318 1.4479-2.6711-0.11433-0.64445-1.675-0.85602-4.2502-1.2401-6.7746-3.0248-8.6363-1.7533-15.141-0.20378-2.9954 0.48661-5.2236-0.1848-5.2236 2.1716-0.26838 3.5441 11.536 2.6683 13.909 2.659 8.7976 0 8.2421-0.22618 9.2573-0.71554z" style="fill:#4d4d4d;stroke-width:.33841"/>
</g>
</g>
</svg>
