<?xml version="1.0" encoding="UTF-8" standalone="no"?>
<svg
   xmlns:dc="http://purl.org/dc/elements/1.1/"
   xmlns:cc="http://creativecommons.org/ns#"
   xmlns:rdf="http://www.w3.org/1999/02/22-rdf-syntax-ns#"
   xmlns:svg="http://www.w3.org/2000/svg"
   xmlns="http://www.w3.org/2000/svg"
   xmlns:sodipodi="http://sodipodi.sourceforge.net/DTD/sodipodi-0.dtd"
   xmlns:inkscape="http://www.inkscape.org/namespaces/inkscape"
   width="184.17374mm"
   height="116.66218mm"
   viewBox="0 0 184.17374 116.66218"
   version="1.1"
   id="svg375"
   inkscape:version="1.0.2 (e86c870879, 2021-01-15)"
   sodipodi:docname="scissors.svg">
  <defs
     id="defs369" />
  <sodipodi:namedview
     id="base"
     pagecolor="#ffffff"
     bordercolor="#666666"
     borderopacity="1.0"
     inkscape:pageopacity="0.0"
     inkscape:pageshadow="2"
     inkscape:zoom="0.35"
     inkscape:cx="364.86602"
     inkscape:cy="249.58217"
     inkscape:document-units="mm"
     inkscape:current-layer="layer1"
     inkscape:document-rotation="0"
     showgrid="false"
     inkscape:window-width="1506"
     inkscape:window-height="1020"
     inkscape:window-x="50"
     inkscape:window-y="32"
     inkscape:window-maximized="0" />
  <metadata
     id="metadata372">
    <rdf:RDF>
      <cc:Work
         rdf:about="">
        <dc:format>image/svg+xml</dc:format>
        <dc:type
           rdf:resource="http://purl.org/dc/dcmitype/StillImage" />
        <dc:title></dc:title>
      </cc:Work>
    </rdf:RDF>
  </metadata>
  <g
     inkscape:label="Layer 1"
     inkscape:groupmode="layer"
     id="layer1"
     transform="translate(-9.2958663,-82.131384)">
    <path
       d="m 13.155897,84.601116 c 0.20378,0.42948 0.46979,0.91779 0.79801,1.41713 0.18045,0.25532 0.32512,0.49621 0.54913,0.75133 0.20843,0.25356 0.434,0.48224 0.66579,0.70623 0.93957,0.87269 1.98647,1.57579 2.80315,2.05181 0.81356,0.47913 1.40624,0.7187 1.40624,0.7187 0,0 -0.44801,-0.45422 -1.14646,-1.07649 -0.34844,-0.30824 -0.75601,-0.66734 -1.19313,-1.05313 -0.43245,-0.38584 -0.90224,-0.78401 -1.3378,-1.20557 -0.22245,-0.20371 -0.44334,-0.41361 -0.63002,-0.62844 -0.18354,-0.2068 -0.39355,-0.45577 -0.56467,-0.66734 -0.35466,-0.45581 -0.68601,-0.88203 -0.97068,-1.24604 -0.56934,-0.74667 -0.95046,-1.24599 -0.95046,-1.24599 0,0 0.15712,0.62068 0.5709,1.4778 z m 9.32104,11.1317 c -0.78089,1.14494 -1.17758,2.50293 -1.17758,4.03366 0,1.138674 0.22246,2.341144 0.66112,3.576244 1.14024,3.20609 3.57163,6.20214 6.84767,8.43595 0.005,0.003 0.009,0.004 0.0136,0.009 3.27295,2.23074 6.94412,3.39741 10.33841,3.28853 3.08159,-0.0979 5.53008,-1.2538 6.89743,-3.25586 0.79024,-1.15891 1.19158,-2.52779 1.19158,-4.06782 l -0.002,-0.12743 c -0.0592,-4.12228 -3.01159,-8.775044 -7.51966,-11.850414 -6.50077,-4.43497 -14.23979,-4.45363 -17.2514,-0.0441 z m -2.94005,4.366534 c 0.002,0.8618 0.12292,1.71892 0.32202,2.55584 0.20377,0.84624 0.476,1.64268 0.83844,2.43446 0.35313,0.78401 0.77002,1.53847 1.24602,2.25251 0.47913,0.71399 1.00646,1.39222 1.57426,2.03469 0.56466,0.64555 1.18379,1.24137 1.83403,1.79824 0.64244,0.54913 1.3098,1.0687 2.01293,1.53535 l 0.006,0.004 0.0218,0.0135 c 0.81512,0.53668 1.66291,1.02821 2.54492,1.44358 0.88358,0.41361 1.79514,0.76531 2.72849,1.04687 0.46511,0.14022 0.93646,0.2628 1.41091,0.36554 0.47445,0.10412 0.95668,0.17286 1.43891,0.23018 0.48068,0.0546 0.96446,0.0856 1.44824,0.0979 0.4838,0.0136 0.96602,-0.0135 1.44514,-0.0511 -0.96134,-0.0352 -1.91492,-0.13841 -2.84982,-0.32808 -0.93335,-0.19754 -1.85114,-0.44958 -2.74405,-0.77002 -0.8929,-0.32189 -1.75936,-0.71245 -2.59316,-1.15891 -0.83534,-0.44179 -1.64579,-0.92869 -2.41892,-1.4716 l -0.003,-0.003 c -0.67356,-0.48221 -1.33002,-0.98315 -1.95069,-1.52913 -0.62379,-0.54136 -1.20558,-1.12623 -1.75937,-1.73761 -1.0998,-1.22576 -2.05337,-2.5869 -2.77516,-4.06469 -0.34999,-0.73115 -0.67044,-1.51516 -0.90066,-2.29296 -0.23334,-0.78869 -0.39358,-1.6007 -0.43869,-2.42202 -0.0404,-0.819814 0,-1.648944 0.16956,-2.459364 0.18201,-0.81048 0.49157,-1.58828 0.91624,-2.31942 -1.03601,1.33782 -1.54469,3.07697 -1.52447,4.792774 z m 40.85889,17.3665 c 1.127794,0.42023 2.291364,0.79958 3.342944,1.35805 0.27688,0.1181 0.53356,0.26589 0.78402,0.42286 0.24886,0.15698 0.51489,0.29236 0.75134,0.46671 0.44956,0.37481 0.95046,0.6938 1.31913,1.14644 l 0.59578,0.63623 c 0.1898,0.23196 0.37958,0.46205 0.56623,0.69067 0.36869,0.4589 0.76068,0.90382 1.13558,1.34561 1.51359,1.74534 3.12517,3.24183 4.71186,4.23428 1.57891,1.00181 3.0396,1.52134 4.02117,1.94601 0.99713,0.39819 1.56647,0.62536 1.56647,0.62536 0,0 -0.546,-0.27691 -1.50424,-0.76377 -0.95669,-0.48067 -2.34893,-1.14179 -3.84229,-2.17005 -0.74356,-0.518 -1.49647,-1.15115 -2.23693,-1.88225 -0.73734,-0.73423 -1.45913,-1.56649 -2.20581,-2.42828 -0.364,-0.44007 -0.73734,-0.87733 -1.1029,-1.34557 -0.18512,-0.23194 -0.37023,-0.46511 -0.55535,-0.69846 l -0.6269,-0.68912 c -0.39355,-0.49311 -0.92402,-0.84778 -1.40623,-1.25844 -0.25202,-0.19138 -0.53202,-0.33909 -0.79803,-0.51181 -0.26603,-0.1711 -0.53822,-0.33468 -0.82602,-0.46045 -1.1278,-0.57402 -2.31314,-0.93958 -3.450264,-1.34556 -1.13869,-0.38892 -2.24004,-0.79023 -3.2434,-1.29423 -0.49622,-0.25664 -0.9629,-0.54917 -1.41557,-0.83539 -0.21312,-0.16316 -0.42313,-0.32498 -0.63155,-0.48377 l -0.31114,-0.23811 c -0.0949,-0.0873 -0.18204,-0.18343 -0.27067,-0.27384 -0.75134,-0.69846 -1.31292,-1.50426 -1.79358,-2.26649 -0.42155,-0.79958 -0.8369,-1.52445 -1.0718,-2.22759 -0.13525,-0.34528 -0.26289,-0.66734 -0.37957,-0.966 -0.11509,-0.30162 -0.17421,-0.59581 -0.25201,-0.85091 -0.29556,-1.03293 -0.46511,-1.62249 -0.46511,-1.62249 0,0 0.11675,0.60358 0.31891,1.65671 0.0592,0.26281 0.0979,0.55842 0.19131,0.86802 0.0979,0.31087 0.20223,0.64868 0.31577,1.00801 0.12759,0.3532 0.20223,0.75756 0.39356,1.13712 0.18197,0.38408 0.37175,0.79025 0.5709,1.21179 0.46199,0.80892 1.01266,1.67693 1.77336,2.4516 0.0918,0.0996 0.18044,0.20549 0.27686,0.30161 l 0.31737,0.2659 c 0.21465,0.17902 0.4309,0.35937 0.64867,0.5429 0.46046,0.33116 0.95979,0.6378 1.47624,0.91626 1.04535,0.54444 2.17471,0.97226 3.31184,1.37977 z m 27.161984,16.38308 c 0.84624,0.41626 2.04405,1.041 3.50474,1.73665 1.46224,0.69582 3.15472,1.53196 4.98874,2.38392 1.82936,0.861 3.79406,1.75239 5.757199,2.64574 1.96937,0.87923 3.93873,1.75968 5.79611,2.56111 1.85268,0.80889 3.59961,1.52525 5.08984,2.15899 1.48869,0.63263 2.74872,1.11754 3.62141,1.47718 0.88044,0.34396 1.38289,0.54088 1.38289,0.54088 0,0 -0.47911,-0.24649 -1.32067,-0.6781 -0.84779,-0.41626 -2.04559,-1.03909 -3.50473,-1.73616 -1.46069,-0.69569 -3.15471,-1.53054 -4.98875,-2.38378 -1.82936,-0.861 -3.79406,-1.75234 -5.7572,-2.64639 -1.96935,-0.8792 -3.938729,-1.76088 -5.796089,-2.5617 -1.85269,-0.80998 -3.59963,-1.52525 -5.08832,-2.15899 -1.49023,-0.63374 -2.75025,-1.11755 -3.62449,-1.47656 -0.8789,-0.34396 -1.38136,-0.54088 -1.38136,-0.54088 0,0 0.47912,0.24648 1.32068,0.67809 z m 18.542539,10.07611 c 0.52734,0.68475 0.672,1.3988 0.69534,1.86064 0.008,0.24253 -0.008,0.42111 -0.0295,0.5407 -0.0172,0.12127 -0.0265,0.18564 -0.0265,0.18564 0,0 -0.0172,-0.0626 -0.0498,-0.18036 -0.0233,-0.12036 -0.0965,-0.28793 -0.16644,-0.48548 -0.16955,-0.39994 -0.48535,-0.93337 -1.0127,-1.37091 -0.52424,-0.43655 -1.25846,-0.75527 -2.05182,-0.75042 -0.0902,0.005 -0.21465,-0.003 -0.27999,0.0135 -0.11043,0.0176 -0.26757,0.0221 -0.33601,0.0489 -0.16178,0.0398 -0.36713,0.0962 -0.55067,0.17197 -0.3749,0.1494 -0.72024,0.38406 -1.00025,0.67994 -0.28622,0.28927 -0.51177,0.64039 -0.64867,1.01904 -0.13226,0.38584 -0.21934,0.75945 -0.19755,1.19097 0.0172,0.37084 0.0918,0.75768 0.23803,1.10291 0.14941,0.34086 0.34536,0.64944 0.56933,0.90656 0.45269,0.51397 0.99402,0.81483 1.39848,0.97286 0.20534,0.0658 0.37176,0.13225 0.49,0.15301 0.11825,0.0308 0.18199,0.045 0.18199,0.045 0,0 -0.0638,0.009 -0.18512,0.0308 -0.12142,0.0265 -0.30178,0.045 -0.53978,0.0464 -0.46201,-0.009 -1.18069,-0.13315 -1.8807,-0.64106 -0.24733,-0.17197 -0.4869,-0.3951 -0.70312,-0.65864 0.72645,1.05064 1.94292,1.73293 3.31649,1.71286 2.18559,-0.0308 3.93096,-1.8295 3.89984,-4.01463 -0.0203,-1.37701 -0.74202,-2.57653 -1.81846,-3.26985 0.27532,0.2099 0.50866,0.44554 0.68756,0.68974 z m -20.580339,1.53301 c 0.74357,0.31573 1.79204,0.79618 3.07072,1.31866 1.28024,0.52193 2.76427,1.15627 4.37118,1.79081 1.60226,0.64401 3.32271,1.30278 5.04319,1.96453 1.72513,0.6459 3.450279,1.29427 5.075869,1.87699 1.62246,0.59001 3.15315,1.10163 4.45674,1.5604 1.30512,0.45761 2.40803,0.79535 3.17337,1.05251 0.77002,0.2412 1.21025,0.37922 1.21025,0.37922 0,0 -0.42155,-0.18917 -1.15735,-0.51958 -0.74201,-0.31527 -1.79203,-0.79534 -3.07227,-1.31848 -1.2787,-0.52209 -2.76271,-1.15521 -4.36962,-1.7908 -1.60226,-0.64357 -3.322739,-1.30341 -5.041659,-1.96519 -1.72513,-0.64648 -3.45026,-1.29547 -5.07585,-1.87757 -1.62403,-0.5919 -3.15472,-1.1023 -4.45829,-1.5604 -1.30358,-0.45828 -2.40803,-0.79535 -3.17183,-1.05189 -0.77002,-0.24121 -1.21179,-0.37922 -1.21179,-0.37922 0,0 0.42154,0.18873 1.15734,0.52001 z m -4.83474,4.47294 c -0.26911,0.22972 -0.58802,0.51957 -0.93335,0.87564 -0.34378,0.35716 -0.72335,0.77718 -1.03447,1.32598 -0.15089,0.28177 -0.30178,0.56076 -0.36086,0.95886 -0.0283,0.20327 -0.0295,0.30601 -0.003,0.53945 0.0233,0.17639 0.0592,0.35144 0.10426,0.52567 0.17267,0.69828 0.46668,1.39829 0.882,2.06483 0.41226,0.6624 0.96135,1.31245 1.73915,1.73419 0.39354,0.19976 0.85557,0.30645 1.35024,0.27162 l 0.29556,-0.0503 0.0746,-0.0135 c 0.0933,-0.0219 0.0685,-0.0176 0.10728,-0.0265 l 0.14473,-0.0398 0.58024,-0.16845 c 1.53691,-0.47521 3.07539,-0.95042 4.51741,-1.39578 1.44202,-0.44364 2.77515,-0.90537 3.92317,-1.27669 1.14956,-0.37438 2.09537,-0.72365 2.76271,-0.95029 0.66267,-0.24077 1.04224,-0.3779 1.04224,-0.3779 0,0 -0.392,0.093 -1.07801,0.25574 -0.68291,0.1764 -1.66449,0.40304 -2.82961,0.72009 -1.16358,0.31969 -2.52937,0.66487 -3.97917,1.08473 -1.44981,0.41848 -2.99606,0.86521 -4.54231,1.31198 l -0.5771,0.17726 -0.14474,0.0445 c -0.008,0.003 -0.081,0.0219 -0.0374,0.0135 l -0.0746,0.0135 -0.29558,0.0559 c -0.30646,0.0135 -0.64712,-0.0398 -0.96601,-0.19445 -0.6269,-0.32322 -1.14646,-0.88733 -1.5338,-1.49368 -0.38425,-0.61073 -0.70625,-1.25116 -0.90069,-1.88674 -0.10577,-0.33071 -0.17113,-0.61134 -0.14158,-0.9175 0.0247,-0.2509 0.14308,-0.55427 0.26599,-0.80518 0.2629,-0.51595 0.59112,-0.95822 0.89289,-1.33748 0.30488,-0.37792 0.59114,-0.69333 0.83692,-0.94422 0.48689,-0.50683 0.78712,-0.7778 0.78712,-0.7778 0,0 -0.336,0.22488 -0.87424,0.68476 z m -10.54062,9.4447 c 0.0979,0.12352 0.24733,0.27912 0.41379,0.47212 0.17268,0.18653 0.36246,0.4048 0.5709,0.62285 0.19754,0.2315 0.41692,0.46063 0.61756,0.70672 0.41066,0.4813 0.79335,0.98438 1.08425,1.39097 0.28466,0.4048 0.48844,0.71449 0.48844,0.71449 0,0 0.10427,-0.36996 0.002,-0.91388 -0.0498,-0.26899 -0.13842,-0.58087 -0.29091,-0.88776 -0.13841,-0.31529 -0.35465,-0.61245 -0.5771,-0.9018 -0.2458,-0.26898 -0.50714,-0.52254 -0.78402,-0.71946 -0.27847,-0.19314 -0.55223,-0.35011 -0.80579,-0.44721 -0.4978,-0.21254 -0.87113,-0.23768 -0.87113,-0.23768 0,0 0.0545,0.0786 0.15243,0.20064 z m 50.035249,-1.19221 c 3.17805,1.25971 6.80101,2.80988 10.77706,4.29916 3.96518,1.49959 8.20569,3.07043 12.45555,4.61576 4.2794,1.45897 8.55724,2.91838 12.56909,4.28621 4.01495,1.35444 7.80435,2.49685 11.03217,3.52869 3.2325,1.02449 5.95632,1.78704 7.84791,2.36248 1.90247,0.54334 2.99139,0.85448 2.99139,0.85448 0,0 -1.05313,-0.41449 -2.89494,-1.13884 -1.8527,-0.69398 -4.47852,-1.74398 -7.66279,-2.90148 -3.18739,-1.15206 -6.88189,-2.56484 -10.87507,-3.97468 -3.98694,-1.42847 -8.23834,-2.95249 -12.48975,-4.47647 -4.26697,-1.47842 -8.5246,-2.98176 -12.50688,-4.41834 -3.97606,-1.4333 -7.7359,-2.72225 -10.90307,-3.84024 -0.75756,-0.30558 -1.45136,-0.65571 -1.97402,-1.12906 -0.54757,-0.45515 -0.84781,-1.06526 -1.05314,-1.68127 -0.39045,-1.24444 -0.16955,-2.45795 0.13059,-3.36767 0.30648,-0.92416 0.68446,-1.60661 0.95824,-2.05634 0.27688,-0.45017 0.45579,-0.67073 0.45579,-0.67073 0,0 -0.19913,0.20151 -0.52112,0.62579 -0.31735,0.42553 -0.7669,1.07257 -1.17447,1.99504 -0.36553,0.92045 -0.73422,2.17593 -0.41224,3.6245 0.16646,0.69644 0.48379,1.47966 1.10135,2.06723 0.58957,0.60526 1.35336,1.03725 2.14827,1.39578 z m 2.96183,-14.3241 c 1.95847,-0.62826 4.77408,-1.47966 8.12325,-2.58301 3.34761,-1.10789 7.27234,-2.34802 11.44285,-3.7712 4.17517,-1.41762 8.6257,-2.92946 13.07777,-4.44179 4.43496,-1.56167 8.86992,-3.1233 13.02798,-4.58714 4.15807,-1.46224 8.01125,-2.90891 11.32774,-4.10671 3.31495,-1.20248 6.05433,-2.26959 7.9848,-2.98671 1.91959,-0.74044 3.01627,-1.16357 3.01627,-1.16357 0,0 -1.12313,0.34526 -3.09094,0.95047 -1.95848,0.62844 -4.77252,1.48088 -8.12324,2.58379 -3.34761,1.10758 -7.27079,2.35051 -11.44441,3.77072 -4.17362,1.41712 -8.62569,2.92915 -13.07777,4.44104 -4.43496,1.56164 -8.86992,3.1227 -13.02643,4.58648 -4.15963,1.45897 -8.01125,2.9083 -11.32929,4.10597 -3.31494,1.20137 -6.05432,2.27081 -7.98325,2.9878 -1.91957,0.74013 -3.01782,1.16354 -3.01782,1.16354 0,0 1.12468,-0.34571 3.09249,-0.94968 z m -89.506553,30.23056 c -0.003,0.003 -0.008,0.005 -0.0105,0.009 -4.35096,3.16343 -7.16189,7.84338 -7.16189,11.92567 0,1.64488 0.44178,3.08798 1.31447,4.28935 1.42335,1.96083 3.9045,3.04553 6.98766,3.05408 3.40051,0.009 7.04212,-1.26826 10.25283,-3.59789 3.20916,-2.32979 5.55342,-5.39474 6.59721,-8.63222 0.37336,-1.15097 0.56158,-2.27332 0.56158,-3.33549 l -0.002,-0.12879 c -0.0233,-1.58419 -0.4589,-2.97254 -1.29736,-4.12709 -3.13761,-4.32281 -10.87195,-4.07858 -17.24205,0.54383 z m -6.27211,17.74823 c 0.13375,0.18697 0.33912,0.46838 0.64713,0.77951 0.60356,0.62532 1.62091,1.43657 3.05981,1.94694 0.71557,0.25972 1.5198,0.45581 2.38471,0.56701 0.43559,0.0546 0.87113,0.0868 1.34247,0.10277 0.44179,0.0135 0.90845,-0.005 1.39068,-0.0398 1.89782,-0.13797 3.87962,-0.677 5.72299,-1.50034 0.91935,-0.41758 1.80602,-0.90536 2.64138,-1.44015 0.42155,-0.26722 0.81823,-0.54678 1.21491,-0.84328 0.37803,-0.28617 0.75134,-0.5877 1.1169,-0.8976 1.43424,-1.23231 2.56827,-2.59702 3.41139,-3.84148 0.84468,-1.24821 1.34713,-2.40447 1.65981,-3.21568 0.1494,-0.41009 0.252,-0.73658 0.31268,-0.96199 0.0622,-0.22355 0.0965,-0.34349 0.0965,-0.34349 0,0 -0.17736,0.46603 -0.54913,1.24572 -0.19133,0.38716 -0.4309,0.85307 -0.74512,1.3636 -0.308,0.51398 -0.6969,1.06636 -1.13091,1.65887 -1.75469,2.34846 -4.78341,4.98143 -8.34725,6.56859 -1.76714,0.80704 -3.65872,1.33269 -5.46475,1.52884 -0.44334,0.0464 -0.8898,0.0674 -1.34247,0.0852 -0.42313,0.009 -0.86179,-6.3e-4 -1.27402,-0.0309 -0.82912,-0.0617 -1.60692,-0.20769 -2.30227,-0.41846 -1.39378,-0.4211 -2.4547,-1.07256 -3.09559,-1.64439 -0.32356,-0.28177 -0.56313,-0.52068 -0.71713,-0.69631 -0.15401,-0.17418 -0.23489,-0.26809 -0.23489,-0.26809 0,0 0.07,0.10186 0.20222,0.2941 z M 16.212607,86.449146 c 1.52292,1.47935 3.23873,2.85605 4.23741,3.62758 5.45697,-4.30739 14.67379,-4.01337 22.33658,1.21491 5.00275,3.41142 8.46392,8.29748 9.52172,13.427794 0.006,0.022 0.012,0.0441 0.0155,0.0653 0.002,0.003 0.005,0.0221 0.008,0.0352 v 0.001 c 1.56803,8.12014 5.36053,9.44392 9.377034,10.84548 2.50604,0.87582 5.09919,1.77959 7.11834,4.32451 4.55786,5.74476 6.25344,6.50858 10.34929,8.35661 0.34843,0.15699 0.71556,0.3219 1.10135,0.49779 3.29316,1.50577 12.33575,5.58638 23.917039,10.80425 16.76139,-4.77127 39.22553,-11.10917 50.63727,-14.08189 1.81536,-0.47287 3.60117,-0.94266 5.35121,-1.40156 20.63166,-5.42119 31.47873,-8.07502 33.21475,-4.29342 0.0467,0.10275 0.0715,0.21298 0.0715,0.32367 0,0.10276 -0.0203,0.20547 -0.0607,0.30159 -0.0856,0.19933 -0.25046,0.35629 -0.45579,0.42773 -0.62378,0.22268 -41.10312,14.6337 -72.7623,25.92687 31.78364,14.30652 70.42582,31.67133 71.04338,31.94901 0.19133,0.0857 0.33914,0.2456 0.41066,0.44285 0.0313,0.0856 0.0467,0.17505 0.0467,0.26368 0,0.1169 -0.0265,0.23326 -0.0778,0.33954 -2.02848,4.16117 -13.18355,0.55299 -34.37989,-6.73333 -1.79669,-0.61743 -3.63228,-1.24808 -5.49898,-1.8849 -11.64663,-3.97532 -33.13076,-12.01748 -49.16413,-18.08723 -8.821699,3.15117 -15.527799,5.5514 -18.243839,6.53702 -11.7213,4.24876 -24.461524,9.81837 -27.272454,22.18772 -0.0871,0.32983 -0.17576,0.63251 -0.27379,0.93689 -1.39536,4.32345 -4.44118,8.35643 -8.57591,11.35764 -4.13474,3.00055 -8.91349,4.64543 -13.45577,4.63203 -4.86276,-0.0135 -8.89793,-1.89345 -11.36507,-5.29442 -1.47004,-2.02458 -2.26804,-4.50992 -2.30694,-7.18659 l -0.002,-0.21033 c 0,-5.91899 3.58562,-12.20088 9.35993,-16.39675 0.005,-0.003 0.009,-0.009 0.012,-0.009 4.25297,-3.08627 9.1546,-4.70624 13.84779,-4.58414 0.0933,-0.0265 0.19446,-0.0398 0.29711,-0.0265 8.31459,0.8058 17.139394,0.91823 25.583084,-7.14462 8.69414,-8.30295 12.57997,-12.03631 12.61731,-12.07287 0.0747,-0.0719 0.16955,-0.116 0.26604,-0.15301 -0.57401,-0.22004 -0.89913,-0.34526 -0.93802,-0.35981 -0.11975,-0.0459 -0.22555,-0.12126 -0.30955,-0.21871 -0.0451,-0.0525 -4.58897,-5.34606 -13.14465,-15.25231 -7.897684,-9.14217 -20.099664,-9.76595 -28.591574,-9.43928 -0.0575,0.004 -0.14309,0.0135 -0.22715,0.0221 -0.16954,0.0176 -0.33913,0.0308 -0.51488,0.0352 -0.10112,0.003 -0.20223,0.002 -0.30489,-0.001 -0.0559,-0.002 -0.11358,-0.005 -0.16954,-0.003 l -0.1136,0.004 -0.2909,0.0136 c -0.0902,0.004 -0.18042,-0.005 -0.26288,-0.0308 -4.20787,-0.11809 -8.61328,-1.61143 -12.44157,-4.22322 -4.22029,-2.87942 -7.38122,-6.82282 -8.90414,-11.10376 -0.62378,-1.7578 -0.95202,-3.50786 -0.97691,-5.201864 l -0.002,-0.20549 c 0,-2.33025 0.5989,-4.54074 1.73136,-6.44632 -0.76845,-0.9442 -2.2727,-2.72847 -3.87961,-4.28874 -2.31315,-2.24626 -3.7489604,-2.6678 -4.2031804,-3.10959 -0.45423,-0.44007 -0.25512,-0.97689 1.1137904,-2.38626 1.36892,-1.40937 1.89937,-1.62402 2.3536,-1.18381 0.45422,0.44177 0.91778,1.86517 3.22938,4.11143"
       style="fill:#ffffff;fill-opacity:1;fill-rule:nonzero;stroke:none;stroke-width:0.155559"
       id="path270" />
    <path
       d="m 92.488135,142.66371 c -0.0221,-1.47003 1.15332,-2.67871 2.6238,-2.70048 1.47062,-0.0216 2.68041,1.15267 2.70171,2.62425 0.0219,1.47002 -1.19048,0.14774 -2.66097,0.16954 -1.47048,0.0216 -2.64262,1.37826 -2.66454,-0.0933"
       style="fill:#ffffff;fill-opacity:1;fill-rule:nonzero;stroke:none;stroke-width:0.155559"
       id="path272" />
    <path
       d="m 94.294145,145.09506 c -0.20416,-0.0528 -0.3757,-0.16334 -0.51829,-0.24732 -0.14413,-0.0824 -0.23813,-0.20222 -0.30691,-0.26758 -0.0608,-0.081 -0.0962,-0.12608 -0.0962,-0.12608 0,0 0.0569,-0.002 0.15698,-0.002 0.0913,0.0105 0.23149,-0.003 0.37788,0.0105 0.14594,0.0203 0.32279,-0.006 0.49467,0.0121 0.17374,0.0135 0.35982,0.012 0.54259,-0.002 0.183,0.0135 0.3682,0.0135 0.54274,0 0.17063,-0.0216 0.34834,0.006 0.49391,-0.0155 0.14594,-0.0136 0.28661,0.002 0.37879,-0.0105 0.0996,0.002 0.15609,0.002 0.15609,0.002 0,0 -0.0352,0.0467 -0.0952,0.12609 -0.0688,0.067 -0.16183,0.18663 -0.30645,0.27063 -0.14204,0.084 -0.31308,0.19601 -0.51706,0.24889 -0.20373,0.0498 -0.42597,0.0871 -0.65213,0.10577 -0.22531,-0.0185 -0.44783,-0.0545 -0.65134,-0.10577"
       style="fill:#ffffff;fill-opacity:1;fill-rule:nonzero;stroke:none;stroke-width:0.155559"
       id="path274" />
  </g>
</svg>
