<svg id="svg373" width="45.433mm" height="92.883mm" version="1.1" viewBox="0 0 45.433 92.883" xmlns="http://www.w3.org/2000/svg">
<g id="layer1" transform="translate(-87.53 -96.319)">
<path id="path176" d="m94.067 133.86c0.27336 0.33671 0.57017 0.74616 0.87992 1.1932 0.28966 0.4599 0.57955 0.962 0.84939 1.4747 0.2451 0.52557 0.47044 1.0606 0.66166 1.5686 0.17027 0.5162 0.3156 1.0007 0.42002 1.4219 0.17593 0.85175 0.24277 1.4231 0.24277 1.4231s-0.17825-0.54905-0.51151-1.3386c-0.14433-0.40239-0.33668-0.86229-0.55374-1.3468-0.20652-0.49039-0.447-1.0031-0.70626-1.5064-0.2441-0.51034-0.50682-1.0113-0.77197-1.4712-0.25574-0.46695-0.50566-0.89751-0.73795-1.2565-0.4282-0.74261-0.75787-1.2166-0.75787-1.2166s0.41414 0.40006 0.98547 1.0547zm0.84706 0.57017c-0.22747-0.51387-0.47044-1.0629-0.7133-1.6108-0.22415-0.55495-0.45169-1.1087-0.67576-1.6202-0.21018-0.51856-0.41414-1.0007-0.60304-1.4067-0.3402-0.83296-0.60771-1.3738-0.60771-1.3738s0.36252 0.48102 0.85527 1.2448c0.23213 0.3895 0.48454 0.85289 0.74849 1.355 0.24643 0.50918 0.49628 1.0571 0.74148 1.6061 0.22281 0.55727 0.4458 1.1145 0.65345 1.6378 0.1972 0.52562 0.38131 1.0172 0.53967 1.4384 0.28733 0.85408 0.50097 1.4184 0.50097 1.4184s-0.31427-0.51504-0.7579-1.3046c-0.19954-0.40476-0.43173-0.87756-0.68162-1.3844zm0.91627-1.2788c-0.19588-0.55843-0.40476-1.1544-0.61357-1.7504-0.1879-0.60303-0.37543-1.2072-0.55142-1.7727-0.16062-0.57018-0.30961-1.1028-0.43642-1.5603-0.21815-0.92565-0.36368-1.5428-0.36368-1.5428s0.25108 0.58192 0.6288 1.4548c0.17027 0.44346 0.36841 0.95966 0.58075 1.5134 0.19721 0.55843 0.40592 1.1544 0.61477 1.7504 0.18889 0.603 0.37659 1.206 0.55255 1.7715 0.15963 0.57133 0.30861 1.104 0.43645 1.5604 0.21716 0.92681 0.36252 1.5439 0.36252 1.5439s-0.25241-0.58191-0.63003-1.4547c-0.17027-0.44347-0.36838-0.95971-0.58072-1.5134zm-6.1452-19.147c-0.20053-1.0852-0.33436-1.8103-0.33436-1.8103s0.24177 0.69455 0.6042 1.7364c0.1726 0.52322 0.3719 1.1321 0.5866 1.7856 0.20985 0.65348 0.43525 1.3504 0.65933 2.0472 0.21816 0.69924 0.43642 1.3984 0.64174 2.0531 0.20054 0.65817 0.38833 1.2717 0.55022 1.7974 0.30263 1.0606 0.50566 1.768 0.50566 1.768s-0.30862-0.66988-0.77081-1.673c-0.20286-0.51267-0.4411-1.111-0.69571-1.7528-0.22514-0.65112-0.46575-1.3468-0.70626-2.0414-0.20419-0.70746-0.40825-1.4137-0.5995-2.0766-0.16063-0.67107-0.31194-1.2964-0.44111-1.8337zm1.4958-4.6177s0.27802 0.66286 0.69452 1.6565c0.18191 0.50566 0.39421 1.097 0.62182 1.7305 0.20419 0.64054 0.41294 1.328 0.61004 2.0191 0.1736 0.69804 0.33436 1.3996 0.47048 2.0601 0.11606 0.66406 0.21716 1.2858 0.285 1.8208 0.10309 1.0746 0.13269 1.7926 0.13269 1.7926s-0.14067-0.70509-0.40945-1.7445c-0.1114-0.52325-0.26272-1.1298-0.43053-1.775-0.15597-0.64996-0.33671-1.3398-0.52913-2.025-0.17493-0.69099-0.36017-1.3797-0.54201-2.0238-0.1736-0.64759-0.33672-1.2518-0.47516-1.7692-0.25707-1.0453-0.4282-1.7422-0.4282-1.7422zm9.5557-4.4887c0.14533 0.4587 0.29897 0.99958 0.45517 1.5826 0.13602 0.58777 0.26638 1.2178 0.38132 1.8513 0.0608 0.4423 0.11273 0.88108 0.15963 1.3116-1e-3 -0.26405-1e-3 -0.51387-1e-3 -0.74383 0.0386-0.90922 0.0632-1.5158 0.0632-1.5158s0.0868 0.60071 0.21583 1.5017c0.0459 0.45168 0.0974 0.97846 0.15364 1.5427 0.0399 0.56432 0.0808 1.1674 0.12305 1.7704 0.0199 0.60419 0.0376 1.2084 0.0562 1.7739 0 0.56781 1e-3 1.0969 1e-3 1.551-0.0386 0.90921-0.0645 1.5146-0.0645 1.5146s-0.0858-0.5995-0.21583-1.5005c-0.0446-0.45168-0.0974-0.97845-0.15365-1.5427-0.0266-0.40828-0.0575-0.83768-0.0881-1.2717-0.02 0.4599-0.0422 0.73791-0.0422 0.73791s-0.0632-0.64054-0.20652-1.5885c-0.0492-0.47513-0.12438-1.0277-0.2135-1.6166-0.0752-0.59129-0.17127-1.2201-0.28035-1.8454-0.0915-0.62767-0.19721-1.2542-0.31094-1.8396-0.10077-0.58777-0.20187-1.1357-0.30396-1.6026-0.16063-0.94559-0.30163-1.5721-0.30163-1.5721s0.24742 0.59129 0.57253 1.5017zm10.443 1.2295c-0.0821 1.2166-0.12903 2.6397-0.1573 4.1637-0.0353 1.5228-0.0333 3.1488 0.01 4.7737 0.0299 1.6237 0.10076 3.2486 0.20519 4.769 0.0974 1.5205 0.20885 2.94 0.34609 4.1519 0.22049 2.432 0.45637 4.0476 0.45637 4.0476s-0.34609-1.5944-0.73558-4.0123c-0.18058-1.2108-0.34493-2.6303-0.49861-4.1543-0.12538-1.5263-0.21949-3.1582-0.27237-4.7913-0.0199-1.6343-1e-3 -3.2674 0.0552-4.7984 0.0845-1.5287 0.18424-2.9541 0.31094-4.1719 0.27935-2.4344 0.55258-4.0417 0.55258-4.0417s-0.16195 1.6237-0.27336 4.064zm2.2854-0.38833c0.12204 1.3292 0.2288 2.8814 0.32391 4.5473 0.0715 1.6671 0.11506 3.4468 0.12903 5.2266-0.0166 1.7798-0.0658 3.5583-0.13967 5.2254-0.0998 1.6648-0.20985 3.2181-0.33436 4.5462-0.28035 2.6549-0.53379 4.4136-0.53379 4.4136s0.142-1.7727 0.25341-4.4335c0.0798-1.3292 0.13735-2.8814 0.18191-4.5438 0.0529-1.6624 0.0785-3.4351 0.0728-5.209 0.01-1.7727-0.0133-3.5466-0.0609-5.209-0.0399-1.6624-0.0938-3.2146-0.17127-4.5438-0.10542-2.662-0.24276-4.4347-0.24276-4.4347s0.24875 1.7598 0.52205 4.4147zm7.9777 9.8842c0.0266-0.16894 0.0529-0.36602 0.0775-0.57603 0.0399-0.20752 0.0762-0.4282 0.10675-0.64995 0.0515-0.21816 0.0984-0.43762 0.13735-0.64527 0.0539-0.20519 0.10209-0.39771 0.13735-0.56548 0.1114-0.32957 0.17359-0.55727 0.17359-0.55727s0.0492 0.2288 0.10443 0.58075c0.01 0.17492 0.0133 0.37895 0.0133 0.59834-0.0166 0.21816-0.0436 0.44932-0.0752 0.68045-0.0539 0.22747-0.11507 0.45168-0.17725 0.66166-0.0798 0.20419-0.15731 0.39302-0.22881 0.55258-0.17958 0.30861-0.30861 0.50329-0.30861 0.50329s0.0233-0.23478 0.0399-0.58307zm-1.3773 1.9956c0.0362-0.24643 0.0798-0.53499 0.12571-0.84354 0.0622-0.30495 0.12904-0.63 0.19588-0.95614 0.0891-0.31926 0.17725-0.63941 0.26039-0.93855 0.10077-0.29697 0.19355-0.57253 0.27437-0.80951 0.1972-0.46343 0.32956-0.77314 0.32956-0.77314s-0.0233 0.33552-0.0585 0.83882c-0.0362 0.24742-0.0785 0.53498-0.12438 0.8447-0.0635 0.30495-0.12903 0.63003-0.19587 0.95501-0.0891 0.32025-0.17825 0.64054-0.2604 0.93971-0.10076 0.29565-0.19355 0.57254-0.27336 0.80952-0.19821 0.46339-0.3309 0.77313-0.3309 0.77313s0.0233-0.33555 0.0575-0.84001zm-26.872 4.41c0.32624 0.86346 0.70745 1.8701 1.1157 2.9494 0.39182 1.0852 0.81068 2.242 1.2283 3.3988 0.39775 1.165 0.79426 2.33 1.1662 3.421 0.35547 1.0981 0.68747 2.1223 0.97257 3.001 0.53146 1.7692 0.88577 2.9482 0.88577 2.9482s-0.45989-1.1427-1.1509-2.8556c-0.32724-0.86349-0.70742-1.8712-1.1157-2.9494-0.39186-1.0852-0.81068-2.242-1.2283-3.3999-0.39655-1.1638-0.79309-2.3288-1.1662-3.421-0.35547-1.0969-0.6875-2.1223-0.9714-2.9999-0.53263-1.7692-0.88694-2.9482-0.88694-2.9482s0.4599 1.1415 1.1509 2.8556zm2.1986-8.2147c0.19122 0.56312 0.39887 1.2248 0.61594 1.9358 0.1972 0.71567 0.39534 1.4841 0.58071 2.2537 0.16196 0.77666 0.31094 1.5556 0.43878 2.2877 0.10808 0.73559 0.20186 1.4219 0.26971 2.012 0.10076 1.1861 0.142 1.9768 0.142 1.9768s-0.15265-0.77782-0.41883-1.9334c-0.11273-0.58072-0.25706-1.2553-0.41885-1.9756-0.14799-0.72272-0.31793-1.4923-0.49861-2.2572-0.16296-0.77077-0.33788-1.538-0.51384-2.2549-0.16063-0.72033-0.31926-1.3926-0.46578-1.9663-0.25208-1.158-0.44696-1.9252-0.44696-1.9252s0.3003 0.73206 0.71563 1.8466zm6.0103 13.424c-0.12438-1.165-0.26971-2.5235-0.42472-3.9806-0.13834-1.4583-0.285-3.0128-0.43289-4.5684-0.12438-1.5568-0.24975-3.1136-0.36605-4.5743-0.0998-1.4606-0.19355-2.8251-0.27336-3.9935-0.12072-2.3417-0.20054-3.902-0.20054-3.902s0.19256 1.551 0.47985 3.8774c0.12438 1.165 0.26871 2.5247 0.42468 3.9806 0.13835 1.4583 0.28501 3.014 0.43293 4.5684 0.12438 1.5568 0.24975 3.1148 0.36721 4.5743 0.0998 1.4618 0.19255 2.8251 0.27204 3.9947 0.12071 2.3405 0.20053 3.902 0.20053 3.902s-0.19255-1.551-0.47985-3.8786zm-3.5853-11.94c0.2604 0.96791 0.53732 2.0003 0.81421 3.0316 0.25574 1.0383 0.51151 2.0754 0.75085 3.048 0.22282 0.97726 0.43057 1.89 0.60889 2.6714 0.31792 1.5733 0.5291 2.6221 0.5291 2.6221s-0.32026-1.0207-0.8013-2.5517c-0.22182-0.77078-0.47982-1.6706-0.75671-2.6338-0.2594-0.96669-0.53615-1.9991-0.81301-3.0315-0.25574-1.0371-0.51151-2.0754-0.75085-3.048-0.22282-0.97726-0.43057-1.8888-0.60889-2.6714-0.31792-1.5732-0.53029-2.6221-0.53029-2.6221s0.32158 1.0218 0.80246 2.5529c0.22049 0.77081 0.47869 1.6694 0.75554 2.6326zm3.3425 12.715s-0.30862-1.226-0.76964-3.0656c-0.21118-0.92329-0.45754-2.0015-0.72269-3.1559-0.24642-1.1579-0.51034-2.3933-0.7743-3.6275-0.24177-1.2401-0.48337-2.4801-0.70978-3.6416-0.20885-1.1662-0.40476-2.2537-0.57253-3.1864-0.29665-1.8724-0.49508-3.1219-0.49508-3.1219s0.30861 1.2272 0.76961 3.0656c0.21117 0.92331 0.45756 2.0015 0.72152 3.1559 0.24742 1.1579 0.51151 2.3933 0.77549 3.6287 0.24177 1.2389 0.48334 2.479 0.70978 3.6404 0.20985 1.1662 0.40593 2.2537 0.5737 3.1864 0.29565 1.8724 0.49392 3.1219 0.49392 3.1219zm-0.71567-6.3869c-0.12438-0.69924-0.27103-1.5146-0.42704-2.3886-0.13967-0.87756-0.28733-1.8126-0.43642-2.7476-0.1267-0.93858-0.25241-1.8771-0.37073-2.7558-0.1021-0.88225-0.19588-1.7058-0.27703-2.4121-0.12304-1.4172-0.20518-2.3616-0.20518-2.3616s0.19221 0.92801 0.48217 2.3206c0.12571 0.7004 0.27104 1.5158 0.42704 2.3898 0.13968 0.87639 0.28866 1.8114 0.43762 2.7464 0.12537 0.93858 0.25208 1.8771 0.3707 2.757 0.1021 0.88225 0.19588 1.7058 0.27702 2.4109 0.12305 1.4172 0.20519 2.3628 0.20519 2.3628s-0.19355-0.92917-0.48337-2.3217zm2.8485-3.143c0.0868 1.6706 0.1736 3.3413 0.25574 4.9075 0.0645 1.5674 0.12438 3.0304 0.17592 4.2845 0.0645 2.5106 0.10675 4.186 0.10675 4.186s-0.15497-1.6671-0.38716-4.1672c-0.0961-1.2506-0.20752-2.7113-0.32724-4.2751-0.10343-1.5662-0.21251-3.2368-0.32258-4.9063-0.0868-1.6718-0.17493-3.3436-0.25574-4.9098-0.0645-1.5674-0.12438-3.0315-0.17592-4.2857-0.0645-2.5095-0.10676-4.1824-0.10676-4.1824s0.15498 1.6683 0.38597 4.1695c0.0961 1.2506 0.20785 2.7112 0.32857 4.2751 0.10309 1.565 0.21251 3.2345 0.32258 4.904zm0.79894 0.7309c-0.0266 1.2166-0.0529 2.3511-0.0752 3.3248-0.11373 1.9428-0.19022 3.2392-0.19022 3.2392s-0.0362-1.2964-0.0905-3.2416c-0.0233-0.9714-0.0492-2.1047-0.0775-3.319-0.02-1.2131-0.0552-2.5083-0.10077-3.8012-0.0233-1.2952-0.0609-2.5892-0.10542-3.8023-0.0386-1.2142-0.0738-2.3464-0.10442-3.3178-0.0515-1.9452-0.0858-3.2416-0.0858-3.2416s0.14665 1.2893 0.36604 3.2239c0.0738 0.97024 0.16196 2.1024 0.25574 3.3154 0.0655 1.2143 0.12438 2.5107 0.1726 3.8082 0.0233 1.2976 0.0352 2.5951 0.0352 3.8117zm2.1821 8.9808s-0.10808-1.1427-0.2697-2.8556c-0.0599-0.8576-0.13136-1.8572-0.20752-2.9295-0.0585-1.0723-0.12072-2.2173-0.18291-3.3612-0.0399-1.145-0.0798-2.2901-0.11839-3.3635-0.0199-1.0746-0.0386-2.0766-0.0552-2.9365 7e-3 -1.7211 0.0133-2.8685 0.0133-2.8685s0.10675 1.1427 0.26871 2.8556c0.0599 0.85761 0.13136 1.8583 0.20752 2.9294 0.0585 1.0735 0.12071 2.2173 0.18423 3.3612 0.0399 1.145 0.0798 2.2901 0.1174 3.3636 0.0199 1.0746 0.0399 2.0777 0.0562 2.9365-7e-3 1.7211-0.0133 2.8685-0.0133 2.8685zm-1.3726-9.6789c0.0492 1.639 0.13269 3.2779 0.24409 4.8113 0.1021 1.5345 0.21484 2.967 0.34726 4.1906 0.21351 2.4543 0.43057 4.0862 0.43057 4.0862s-0.32724-1.612-0.70978-4.0522c-0.17593-1.2225-0.34257-2.6538-0.49977-4.1895-0.1327-1.5392-0.23812-3.1829-0.31095-4.8289-0.0399-1.6472-0.0469-3.2955-0.0199-4.8394 0.0529-1.5428 0.11972-2.9823 0.2125-4.2141 0.21351-2.4602 0.43057-4.091 0.43057-4.091s-0.10576 1.6425-0.15132 4.1062c-0.0482 1.2295-0.0632 2.6667-0.0599 4.2047-3e-3 1.5369 0.0233 3.1782 0.0868 4.816zm9.0958 2.8028c0.02-0.88694 0.0446-1.9205 0.0692-3.028 0.0422-1.1075 0.0881-2.2878 0.13269-3.4691 0.0682-1.1803 0.13602-2.3593 0.19954-3.4656 0.0808-1.1052 0.15597-2.1364 0.22049-3.021 0.16894-1.7668 0.28167-2.9436 0.28167-2.9436s-1e-3 1.1826-1e-3 2.9564c-0.0199 0.88694-0.0436 1.9205-0.0692 3.0292-0.0422 1.1063-0.0868 2.2877-0.13269 3.468-0.0669 1.1803-0.13502 2.3593-0.19821 3.4656-0.0808 1.1051-0.15597 2.1376-0.22049 3.021-0.16894 1.7668-0.28167 2.9447-0.28167 2.9447v-2.9576zm1.8712-1.9299c0.0738-0.76609 0.1583-1.6612 0.24976-2.6197 0.10908-0.95617 0.22514-1.9757 0.3414-2.9952 0.13835-1.0172 0.27702-2.0343 0.40593-2.9882 0.14665-0.95145 0.284-1.8396 0.40123-2.601 0.27436-1.5169 0.45757-2.5294 0.45757-2.5294s-0.0715 1.0254-0.17959 2.5634c-0.0728 0.76728-0.15829 1.6613-0.24975 2.6198-0.10908 0.95614-0.22414 1.9768-0.34024 2.9963-0.13834 1.0172-0.27702 2.0343-0.40592 2.9882-0.14666 0.95145-0.28401 1.8396-0.40123 2.6009-0.27437 1.517-0.45754 2.5294-0.45754 2.5294s0.0715-1.0266 0.17825-2.5646zm-0.62414 2.1739c0.0362-0.66286 0.0785-1.436 0.12537-2.2655 0.0539-0.82708 0.10077-1.7105 0.13968-2.5939 0.0585-0.88225 0.10808-1.7645 0.14566-2.5928 0.0456-0.82827 0.0878-1.6026 0.12438-2.2654 0.0858-1.3281 0.143-2.2126 0.143-2.2126s0.0539 0.88577 0.13601 2.2162c7e-3 0.66638 0.02 1.443 0.0266 2.2748-0.0166 0.833-0.0422 1.7199-0.0785 2.608-0.0608 0.88578-0.13136 1.7715-0.20652 2.5998-0.10209 0.82594-0.1972 1.5979-0.27802 2.2584-0.22747 1.3128-0.38011 2.188-0.38011 2.188s0.0399-0.88577 0.10076-2.215zm3.9314-6.6415c0.10576-0.58072 0.21118-1.1615 0.30962-1.7058 0.11606-0.54201 0.22414-1.0477 0.31693-1.4806 0.22414-0.85996 0.37426-1.4337 0.37426-1.4337s-0.0386 0.59129-0.0974 1.4782c-0.0492 0.44114-0.10576 0.95497-0.16661 1.5052-0.0775 0.54786-0.16063 1.1321-0.2441 1.7164-0.10576 0.58075-0.21118 1.1615-0.30962 1.7058-0.11606 0.54084-0.22414 1.0465-0.31659 1.4806-0.22415 0.85993-0.37423 1.4336-0.37423 1.4336s0.0386-0.59129 0.0974-1.4794c0.0482-0.43994 0.10575-0.95381 0.16661-1.504 0.0775-0.5479 0.16063-1.1321 0.2441-1.7164zm-0.13036-5.6806c-0.0422 0.77902-0.11374 1.6882-0.20053 2.662-0.10809 0.97021-0.24177 2.0038-0.39302 3.0362-0.17825 1.0266-0.3731 2.0508-0.57254 3.0069-0.22181 0.95148-0.43758 1.8372-0.63938 2.5916-0.43761 1.5017-0.76728 2.4883-0.76728 2.4883s0.22049-1.0183 0.49276-2.5517c0.15829-0.7626 0.32258-1.6554 0.48922-2.6127 0.17726-0.95498 0.34959-1.978 0.50446-3.0022 0.1726-1.0207 0.32724-2.0461 0.45638-3.0093 0.142-0.96083 0.26405-1.8607 0.35078-2.6338 0.21949-1.5427 0.32724-2.5787 0.32724-2.5787s3e-3 1.0406-0.0482 2.6033zm-7.3841 6.9665c0.01-1.07 0.01-2.1411 0-3.1442-2e-3 -1.0043-3e-3 -1.9416-7e-3 -2.7453 7e-3 -1.6096 0.0133-2.6831 0.0133-2.6831s0.10675 1.0688 0.26737 2.6726c0.0469 0.80363 0.1021 1.741 0.16063 2.7464 0.0299 1.0054 0.0539 2.0801 0.0659 3.1536-0.0133 1.0735-0.0339 2.1469-0.0659 3.1535-0.0575 1.0054-0.11274 1.9428-0.1583 2.7465-0.16196 1.6037-0.26871 2.6725-0.26871 2.6725s-3e-3 -1.0735-0.0133-2.6831c2e-3 -0.80363 3e-3 -1.741 7e-3 -2.7453 0.01-1.0031 0.01-2.0742 0-3.1442zm-3.7026-7.7384s0.10907 1.111 0.27236 2.777c0.0622 0.83412 0.13369 1.8067 0.21118 2.8497 0.0609 1.043 0.12437 2.1563 0.18889 3.2685 0.0422 1.1145 0.0831 2.2279 0.12305 3.272 0.02 1.0453 0.0422 2.0203 0.0585 2.8568-3e-3 1.6741-7e-3 2.7898-7e-3 2.7898s-0.10908-1.1098-0.27337-2.7758c-0.0622-0.83413-0.13369-1.8079-0.21117-2.8497-0.0599-1.043-0.12438-2.1563-0.1889-3.2685-0.0409-1.1145-0.0831-2.2279-0.12205-3.272-0.0199-1.0453-0.0422-2.0214-0.0599-2.8568 3e-3 -1.6741 7e-3 -2.791 7e-3 -2.791zm1.5088 14.04c3e-3 -1.375-0.0133-2.8415-0.0482-4.3068-0.0166-1.4665-0.0552-2.9318-0.10808-4.3056-0.0409-1.375-0.0891-2.6584-0.15032-3.7566-0.0775-2.2009-0.17127-3.6686-0.17127-3.6686s0.20519 1.4548 0.44936 3.6486c0.10675 1.0969 0.20652 2.3804 0.30396 3.7554 0.0738 1.3774 0.13369 2.8462 0.17492 4.3174 0.0133 1.4712 7e-3 2.9424-0.0166 4.3209-0.0459 1.3773-0.0998 2.6631-0.16529 3.7636-0.16528 2.2009-0.31659 3.6627-0.31659 3.6627s0.0399-1.47 0.0353-3.6721c0.0199-1.1005 0.0233-2.3851 0.0133-3.7589zm0.36249-18.589c0.0459 0.58427 0.0998 1.2659 0.1583 1.9968 0.0399 0.7309 0.0831 1.5099 0.12671 2.2901 0.02 0.78019 0.0422 1.5615 0.0609 2.2936 2e-3 0.7321 3e-3 1.4161 7e-3 2.0015-0.0362 1.1744-0.0608 1.9569-0.0608 1.9569s-0.0881-0.77786-0.22049-1.9452c-0.0459-0.58424-0.0998-1.2659-0.1583-1.9956-0.0399-0.7309-0.0835-1.511-0.1267-2.2912-0.02-0.78019-0.0409-1.5604-0.0609-2.2924-2e-3 -0.73323-3e-3 -1.4172-7e-3 -2.0026 0.0362-1.1744 0.0599-1.9569 0.0599-1.9569s0.0881 0.77783 0.22048 1.9452zm-15.362 3.4598s0.31094 1.0958 0.77782 2.7406c0.21483 0.82594 0.46459 1.7903 0.7321 2.8239 0.25108 1.0359 0.51972 2.1422 0.7872 3.2486 0.2451 1.111 0.49156 2.2232 0.72152 3.265 0.2135 1.0453 0.41297 2.0214 0.58424 2.8579 0.30263 1.6824 0.50566 2.8039 0.50566 2.8039s-0.31194-1.097-0.77902-2.7406c-0.2145-0.82711-0.46459-1.7903-0.73207-2.8239-0.25108-1.0371-0.51856-2.1434-0.78603-3.2497-0.24643-1.111-0.49156-2.222-0.72269-3.2638-0.2135-1.0465-0.41297-2.0226-0.58308-2.8591-0.30396-1.6812-0.50565-2.8028-0.50565-2.8028zm-0.72269 7.8381c0.2451 0.61124 0.51268 1.3304 0.79189 2.1059 0.25807 0.78134 0.51856 1.6202 0.76376 2.4637 0.21949 0.85058 0.42235 1.7047 0.59834 2.5095 0.15497 0.80835 0.28966 1.5651 0.39066 2.215 0.16661 1.3081 0.24177 2.181 0.24177 2.181s-0.18657-0.8576-0.5174-2.127c-0.14433-0.63942-0.32956-1.3809-0.53731-2.1716-0.19488-0.79425-0.41883-1.6366-0.65701-2.4754-0.22182-0.84234-0.4587-1.6824-0.69452-2.4637-0.22414-0.7872-0.4423-1.5193-0.6441-2.1434-0.36249-1.26-0.63821-2.0941-0.63821-2.0941s0.37895 0.79072 0.9022 2.0003zm-2.9365-3.5219s0.58072 1.6988 1.4501 4.2458c0.42351 1.2764 0.93386 2.7605 1.49 4.3478 0.542 1.5909 1.1356 3.2826 1.7434 4.9685 0.5901 1.6929 1.1943 3.3812 1.775 4.9591 0.56781 1.5814 1.1063 3.0562 1.5814 4.3138 0.92801 2.527 1.5463 4.2118 1.5463 4.2118s-0.72268-1.6436-1.8079-4.1085c-0.51736-1.2424-1.104-2.7007-1.7246-4.2658-0.60183-1.5721-1.2283-3.2556-1.8408-4.9438-0.5866-1.6964-1.1603-3.3988-1.6835-4.999-0.50333-1.6061-0.96556-3.1078-1.3457-4.3995-0.71095-2.5987-1.1838-4.3303-1.1838-4.3303zm1.0746 6.767c-0.21117-0.5432-0.43641-1.1216-0.66169-1.7-0.19022-0.59129-0.38012-1.1826-0.5596-1.7363-0.14898-0.56312-0.28866-1.0887-0.40828-1.5392-0.18424-0.91394-0.30629-1.524-0.30629-1.524s0.2288 0.57719 0.5737 1.4418c0.16196 0.43526 0.34959 0.94208 0.55255 1.4853 0.19721 0.54437 0.40712 1.1251 0.61829 1.7046 0.20286 0.58308 0.40592 1.1662 0.59598 1.7129 0.18657 0.54905 0.36016 1.0617 0.50918 1.5005 0.27935 0.8893 0.46459 1.4818 0.46459 1.4818s-0.28966-0.55022-0.72505-1.3762c-0.19122-0.42468-0.41413-0.92096-0.65348-1.4512zm14.643-16.322s0.2125 1.9722 0.46927 4.938c0.11141 1.4841 0.21716 3.2181 0.32026 5.0753 0.0808 1.8595 0.14666 3.8434 0.19355 5.8273 0.0199 1.985 0.0166 3.9701-2e-3 5.8308-0.0422 1.8595-0.0928 3.5959-0.15597 5.0823-0.1583 2.9728-0.30862 4.9509-0.30862 4.9509s0.0376-1.9839 0.0266-4.9579c0.0199-1.4864 0.0166-3.2204 2e-3 -5.0788 0-1.8572-0.0233-3.8387-0.0622-5.819-0.0233-1.9804-0.0668-3.9619-0.12671-5.8191-0.0469-1.856-0.10209-3.59-0.16894-5.0753-0.0881-2.9729-0.18889-4.9544-0.18889-4.9544zm-13.417 6.008c-0.14532-0.85528-0.2687-1.4231-0.2687-1.4231s0.2288 0.53263 0.53848 1.3492c0.13834 0.41297 0.285 0.89984 0.43761 1.4231 0.13136 0.5291 0.26173 1.0958 0.38012 1.6648 0.0928 0.5737 0.17492 1.1497 0.24044 1.6906 0.0459 0.54317 0.0821 1.05 0.10076 1.4852 3e-3 0.87404-0.0199 1.4524-0.0199 1.4524s-0.0881-0.57369-0.25807-1.4242c-0.0632-0.42824-0.15131-0.92448-0.25108-1.4536-0.0858-0.53263-0.18756-1.097-0.30163-1.6601-0.0951-0.56549-0.20053-1.1298-0.31094-1.6578-0.0961-0.53026-0.19256-1.0254-0.28634-1.4465zm-2.9388 9.727c-0.29332-1.165-0.48807-1.9416-0.48807-1.9416s0.30163 0.74264 0.75438 1.8572c0.20186 0.56548 0.43642 1.2248 0.68747 1.9322 0.23578 0.71098 0.4857 1.4688 0.73678 2.2267 0.23446 0.7626 0.47866 1.5217 0.71683 2.2302 0.22648 0.71098 0.44347 1.375 0.64643 1.937 0.36369 1.1427 0.64174 1.8959 0.64174 1.8959s-0.38011-0.7051-0.90336-1.7915c-0.2451-0.55022-0.51271-1.199-0.79309-1.897-0.26039-0.70509-0.52561-1.4618-0.78251-2.2209-0.23013-0.76728-0.4599-1.5334-0.67576-2.2514-0.19721-0.72388-0.38248-1.3984-0.54084-1.9768zm4.3819 13.55s-0.26505-0.52794-0.66519-1.3222c-0.18656-0.40007-0.40476-0.86698-0.63825-1.368-0.22747-0.50213-0.46927-1.0383-0.71094-1.5744-0.23113-0.54084-0.46342-1.0817-0.68045-1.5897-0.21018-0.51035-0.40709-0.98667-0.57603-1.3961-0.31427-0.82944-0.52445-1.3832-0.52445-1.3832s0.31095 0.50565 0.77666 1.2624c0.20985 0.39066 0.45405 0.84703 0.71684 1.3363 0.23711 0.50096 0.49039 1.0348 0.7438 1.5686 0.22281 0.54786 0.44583 1.0958 0.65348 1.6096 0.18291 0.52325 0.35431 1.0124 0.50097 1.4313 0.24276 0.85524 0.40356 1.4254 0.40356 1.4254zm-0.4458 41.341c0-3.3471-2.33-2.0414-2.33-6.1241 0-4.0815 2.0813-4.3267 2.0813-4.3267s-2.1646-7.3489-2.1646-13.228c0-4.3983 3.5419-4.952 10.555-4.952 2.3593 0 5.1116 0.0622 8.2546 0.0622 3.143 0 5.8941-0.0622 8.2534-0.0622 1.2506 0 2.3851 0.0199 3.414 0.0728 0.78371 0.59598 1.4583 1.2823 1.9815 2.0425 0.35431 0.51271 0.63472 1.0547 0.85996 1.6132-0.37073 0.0333-0.76023 0.0658-1.1673 0.0998-3.2298 0.26505-7.5519 0.54669-11.882 0.73442-4.3314 0.18989-8.6711 0.29199-11.927 0.32392-1.6284 0.0266-2.9858 0.0233-3.9361 0.0266-0.95029 2e-3 -1.4935 3e-3 -1.4935 3e-3s0.54084 0.0482 1.4876 0.13269c0.94676 0.0845 2.2995 0.2135 3.9243 0.33788 3.2498 0.26871 7.5894 0.57017 11.94 0.78135 4.349 0.21483 8.7075 0.33439 11.983 0.36957 0.6183 7e-3 1.1978 0.01 1.7316 0.01 0.17027 1.8044-0.0562 3.6557-0.4153 5.3345-0.37423 1.7457-1.0207 3.4457-1.6167 5.1527-0.7743 0.0868-1.7528 0.18756-2.8919 0.29431-2.8826 0.26738-6.7447 0.54789-10.617 0.72974-3.8716 0.18291-7.7537 0.27336-10.667 0.29431-1.4571 0.0233-2.6714 0.0133-3.5219 0.0133-0.85056-1e-3 -1.3363-1e-3 -1.3363-1e-3s0.48334 0.0492 1.3292 0.13502c0.84703 0.0845 2.0554 0.21583 3.509 0.34021 2.906 0.27237 6.7881 0.57253 10.682 0.78018 3.8938 0.20885 7.7971 0.31926 10.734 0.34374 0.68162 3e-3 1.3058 3e-3 1.8712 3e-3 -0.0974 0.38833-0.18291 0.77902-0.25241 1.1732-0.24277 1.375-0.28733 2.7582-0.21816 4.1414-0.3719 0.0376-0.76023 0.0762-1.1767 0.11507-2.8825 0.26738-6.7447 0.54786-10.617 0.72854-3.8727 0.18424-7.7537 0.27436-10.667 0.29564-1.4571 0.0233-2.6714 0.0133-3.5219 0.0133h-1.3363s0.48337 0.0482 1.3292 0.13502c0.84586 0.0845 2.0554 0.21583 3.509 0.34024 2.9048 0.27203 6.7881 0.5725 10.682 0.78018 3.8927 0.20885 7.7971 0.31926 10.734 0.34257 0.47633 3e-3 0.91627 3e-3 1.3386 3e-3 0.21583 1.538 0.51271 3.0726 0.79778 4.5989 0.30495 1.6295 0.57838 3.353-0.19023 4.8805-0.3707 0.73678-0.95145 1.3586-1.6636 1.8853-0.56782 0.0984-1.1532 0.19954-1.7774 0.28035-0.91394 0.13602-1.8807 0.26173-2.8861 0.36485-1.0043 0.12671-2.0472 0.19123-3.1078 0.28501-1.0606 0.0798-2.1422 0.11972-3.2239 0.1829-1.084 0.02-2.168 0.0432-3.2357 0.0645-1.0688-0.0133-2.1211-0.0233-3.1395-0.0339-1.0195-0.0446-2.0038-0.0868-2.9377-0.12671-0.93502-0.0399-1.8149-0.13136-2.6315-0.18756-0.8142-0.0659-1.5651-0.11041-2.2232-0.19588-0.6617-0.0752-1.2377-0.13967-1.7117-0.19355-0.95029-0.10808-1.4935-0.16894-1.4935-0.16894s0.53496 0.11274 1.47 0.30962c0.46811 0.0984 1.0371 0.21949 1.6894 0.35667 0.65112 0.14898 1.3938 0.26405 2.2032 0.40825 0.80952 0.13369 1.6847 0.31094 2.6174 0.43878 0.93386 0.13036 1.9194 0.26737 2.9389 0.40944 1.0242 0.10908 2.0836 0.22182 3.1594 0.33672 1.0805 0.0808 2.1786 0.16428 3.2767 0.24643 0.46342 0.0166 0.92801 0.0399 1.3902 0.0609-1.6601 0.19122-3.7754 0.31094-7.2527 0.33089-7.282-0.29564-13.575-1.3984-13.575-5.2066 0-4.8171 3.0785-5.3885 3.0785-8.7368zm38.856-58.422s-0.22049 0.51035-0.60186 1.3245c0.27103-1.944 0.34609-3.861 0.28965-5.3075-0.0199-0.77313-0.0715-1.4149-0.11506-1.8607-0.0446-0.4458-0.0692-0.7004-0.0692-0.7004s-0.0266 0.25341-0.0738 0.69924c-0.0469 0.44346-0.12671 1.0758-0.2604 1.8255-0.0166 0.0998-0.0376 0.20652-0.0562 0.30961 0.142-1.9264 0.11972-3.4562 0.11972-3.4562s-0.23345 0.76844-0.62647 1.8536c-0.15265-1.0348-0.35551-1.8149-0.35551-1.8149s-0.18889 0.60772-0.50446 1.3844c-0.0446-2.337-0.40828-4.3796-0.40828-4.3796s-0.1889 1.2471-0.58893 2.8039c-0.0386-0.6734-0.0974-1.3011-0.17027-1.8349-0.14533-1.1192-0.30396-1.8466-0.30396-1.8466s-0.0492 0.74733-0.21583 1.8419c-0.0682 0.46226-0.16894 0.99252-0.28966 1.5463-0.0705-2.0707-0.27802-3.7824-0.27802-3.7824s-0.20419 1.0101-0.55844 2.364c-0.13368-1.7352-0.49039-3.1934-0.49039-3.1934s-0.17492 0.9186-0.52208 2.0625c-0.22515-0.94912-0.48571-1.6671-0.48571-1.6671s-0.23578 0.79894-0.61826 1.6929c-0.24177-1.0031-0.4728-1.8184-0.4728-1.8184s-0.15131 0.41294-0.37659 0.98664c-0.28267-1.5498-0.63821-2.9635-0.63821-2.9635s-0.25009 0.94912-0.60892 2.0918c-0.29698-1.0782-0.6171-1.9874-0.6171-1.9874s-0.17958 0.55611-0.44579 1.2729c-0.11973-0.32857-0.2441-0.63353-0.35431-0.87523-0.16429-0.36016-0.29199-0.58424-0.29199-0.58424s-0.0785 0.24742-0.22747 0.59598c-0.0928 0.22048-0.22049 0.48217-0.3602 0.75201-0.16894-1.5216-0.48334-2.8685-0.48334-2.8685s-0.31793 1.0712-0.79661 2.2561c-0.23944-0.82242-0.46928-1.4653-0.46928-1.4653s-0.17592 0.43762-0.43758 1.016l-0.46106-2.3065-0.91158 1.9897c-0.20519-1.4184-0.30496-2.7652-0.30496-2.7652s-0.40003 0.81773-0.85171 1.8689c-0.22415-1.2248-0.28966-2.3898-0.28966-2.3898s-0.55139 0.9444-1.0559 2.1118l-0.49392-2.357-1.0758 2.75-0.51271-1.8724-0.42235 1.2952-0.54201-2.5716-0.63236 2.2478-0.58544-2.3041-0.64759 2.7711c-0.34493-1.2096-0.74264-2.3546-0.74264-2.3546s-0.41414 1.1908-0.89046 2.3393l-0.69216-2.256-0.88577 2.96-0.42235-1.2964-0.90104 2.2432-0.48334-2.0754-1.0148 2.3828-0.55964-1.9252-0.49744 1.531c-0.2145-0.5737-0.38713-0.99019-0.38713-0.99019s-0.31427 0.73795-0.70862 1.5404l-0.3848-1.9569-1.2788 2.8872-0.36838-2.0953-1.1826 2.5963c-0.15597-0.68867-0.2451-1.2248-0.2451-1.2248s-0.50566 0.84703-0.97729 1.856c-0.26173-0.7039-0.44696-1.2729-0.44696-1.2729s-0.33788 0.73326-0.68867 1.6131c-0.37073-0.97962-0.73795-1.822-0.73795-1.822s-0.28733 0.93153-0.64879 1.9217c-0.14533-0.28167-0.24509-0.46458-0.24509-0.46458s-0.13835 0.4423-0.3461 1.0148l-0.78487-3.0116-0.64291 3.9408-0.64995-1.6507-0.33552 2.0718c-0.33189-0.98431-0.54673-1.782-0.54673-1.782s-0.284 1.0559-0.52205 2.337l-0.40007-1.0031-0.47396 2.879-0.6746-1.2565-0.34493 2.4168c-0.40123-0.82358-0.6429-1.456-0.6429-1.456s-0.13037 1.2764-0.0469 2.8028c-0.69099-1.8325-1.0805-3.3072-1.0805-3.3072s-7e-3 0.79189 0.0645 1.9897c0.0645 1.1966 0.23579 2.7969 0.52674 4.3948 0.26173 1.5217 0.66755 3.0186 1.0219 4.1766 0.36252 1.4665 0.85528 3.1348 1.4642 4.9556-0.48102-1.2553-0.90573-2.4414-1.2401-3.509-0.23579-0.70393-0.43057-1.355-0.59598-1.9358-0.1726-0.57839-0.31793-1.0852-0.42235-1.5064-0.22049-0.84001-0.3461-1.3199-0.3461-1.3199s0.0752 0.49039 0.20652 1.3492c0.0599 0.43173 0.15132 0.95145 0.26272 1.5474 0.10443 0.59715 0.23113 1.2706 0.39302 2.0003 0.29565 1.4653 0.72741 3.157 1.2319 4.9638 0.52325 1.8008 1.1556 3.7038 1.8583 5.5868 0.0668 0.17359 0.13835 0.34726 0.20652 0.52089-1.1392-1.8806-1.8677-3.2638-1.8677-3.2638s0.25341 1.1486 0.72269 2.8614c0.41413 1.5322 1.0289 3.5078 1.7598 5.5105-0.51271-0.7743-0.79897-1.3104-0.79897-1.3104s0.16661 0.75321 0.54905 1.863c0.37427 1.111 1.0183 2.5623 1.8548 3.9373 0.22648 0.3719 0.46692 0.73559 0.71447 1.0887 0.1726 0.36721 0.33905 0.71567 0.49861 1.0442-0.77433 0.143-1.4841 0.32624-2.1223 0.57486-1.9006 0.74264-4.166 2.4461-4.166 6.3493 0 4.4593 1.1392 9.5932 1.802 12.2-0.95149 1.023-1.7187 2.7101-1.7187 5.3544 0 2.8744 0.95378 4.0921 1.9299 5.094 0.38481 0.39535 0.40004 0.41061 0.40004 1.03 0 0.76259-0.28401 1.2178-0.92565 2.1739-0.90805 1.3539-2.1528 3.2087-2.1528 6.5629 0 3.4539 2.7371 5.7428 8.1385 6.8034 4.0041 0.78488 9.185 0.89163 13.724 0.89163 4.5379 0 9.7188-0.10675 13.723-0.89163 5.4002-1.0606 8.1396-3.3495 8.1396-6.8034 0-3.3542-1.2459-5.209-2.154-6.5629-0.64174-0.95614-0.92565-1.4114-0.92565-2.1739 0-0.61943 0.0166-0.63469 0.40007-1.03 0.9761-1.0019 1.9299-2.2197 1.9299-5.094 0-2.6444-0.76728-4.3314-1.7187-5.3544 0.53146-2.0883 1.3656-5.7979 1.6777-9.483 0.11274-0.57955 0.18524-1.1626 0.20752-1.7457 0.0199-0.50799-0.0199-1.0219-0.1021-1.531-0.26405-4.7679-3.9196-6.1839-7.9179-6.6028 0.47749-0.93738 1.0371-2.0801 1.5486-3.2415 1.2471-2.7582 2.2138-5.5879 2.2138-5.5879s-0.43057 0.6159-1.0993 1.5146c0.54084-1.097 1.111-2.2936 1.6472-3.5067 1.9299-4.2564 3.4304-8.6429 3.4304-8.6429s-0.79661 1.4231-1.9862 3.3635c0.46691-1.1591 0.97257-2.4954 1.4125-3.854 1.2753-3.7706 2.0332-7.6258 2.0332-7.6258" style="fill:#3f3f3f"/>
<path id="path178" d="m95.936 150.51c0.75787 0.0938 1.6425 0.22415 2.5939 0.30862 0.95265 0.0785 1.9686 0.16196 2.9846 0.24643 1.0183 0.0412 2.0367 0.0835 2.9916 0.12205 0.95498 0.0352 1.8478 0.0133 2.6127 0.0133 0.76376 0 1.4031-0.0446 1.8489-0.0575 0.44583-0.0266 0.70161-0.0436 0.70161-0.0436s-0.25341-0.0333-0.69808-0.0868c-0.44347-0.0399-1.077-0.1267-1.8384-0.18656-0.76139-0.0552-1.6472-0.1583-2.5986-0.21584-0.95149-0.0668-1.9651-0.13734-2.9799-0.20884-1.0148-0.0529-2.0296-0.10675-2.9823-0.1573-0.95146-0.0585-1.8431-0.0668-2.6057-0.10543-0.76255-0.0333-1.4008-0.0266-1.8466-0.0399h-0.70276s0.25108 0.0469 0.68986 0.12803c0.44111 0.0682 1.0699 0.19023 1.829 0.28401" style="fill:#3f3f3f"/>
<path id="path180" d="m95.305 163.59c0.53851 0.0775 1.3046 0.21483 2.2302 0.32025 0.92448 0.10676 2.0038 0.24976 3.1653 0.34377 1.1615 0.0821 2.4004 0.17127 3.6393 0.2594 1.2424 0.0362 2.4837 0.0728 3.6474 0.10808 1.165 0.0233 2.2526-0.01 3.1841-0.0233 0.93153-0.0133 1.7082-0.0728 2.2502-0.0961 0.5432-0.0386 0.85408-0.0609 0.85408-0.0609s-0.31095-0.0233-0.85292-0.0692c-0.54201-0.0353-1.3175-0.0868-2.2455-0.14899-0.928-0.0515-2.0109-0.11373-3.1712-0.17958-1.1591-0.0609-2.3957-0.12804-3.6322-0.19355-1.2377-0.0575-2.4743-0.11606-3.6346-0.17127-1.1603-0.0505-2.2443-0.0984-3.1735-0.13834-0.92917-0.0333-1.7058-0.0599-2.2479-0.0785-0.54433-0.01-0.85524-0.0166-0.85524-0.0166s0.30629 0.0529 0.84234 0.14532" style="fill:#3f3f3f"/>
<path id="path182" d="m99.324 171.92c1.0969 0.17825 2.3792 0.38244 3.7624 0.53263 1.382 0.143 2.8602 0.2687 4.3408 0.36601 1.4818 0.0599 2.9647 0.0915 4.3549 0.0938 1.3914-2e-3 2.6878-0.0715 3.7976-0.13269 1.1098-0.0562 2.0308-0.16528 2.6761-0.22647 0.64407-0.0775 1.0113-0.12072 1.0113-0.12072s-0.36954-3e-3 -1.0183-0.01c-0.64643 7e-3 -1.5721-0.0166-2.6796-0.0166-1.1075 7e-3 -2.398-0.0505-3.78-0.0705-1.382-0.0299-2.8556-0.0928-4.3268-0.18058-1.4724-0.0668-2.9447-0.16062-4.322-0.27669-1.3762-0.12338-2.6667-0.20519-3.7671-0.32857-1.1016-0.11273-2.0238-0.18889-2.6667-0.26505-0.64523-0.0622-1.0136-0.0984-1.0136-0.0984s0.36136 0.0821 0.99372 0.22647c0.63469 0.12903 1.5392 0.33439 2.6373 0.50802" style="fill:#3f3f3f"/>
</g>
</svg>
